<svg width="32" height="32" viewBox="0 0 32 32" fill="none" xmlns="http://www.w3.org/2000/svg">
<g clip-path="url(#clip0_3141_23288)">
<path d="M30.0573 12.6362C30.0573 12.8765 30.1775 13.1168 30.1775 13.4772C30.1775 13.8376 30.2976 14.1981 30.2976 14.5585C30.4177 15.2794 30.4177 16.0002 30.4177 16.7211C30.4177 17.0815 30.4177 17.442 30.2976 17.9225C30.2976 18.0427 30.2976 18.283 30.1775 18.5233C30.0573 19.124 29.9372 19.7247 29.6969 20.3254C29.3364 21.647 28.7357 22.9686 27.8947 24.0499C27.8947 24.17 27.7746 24.17 27.7746 24.2902C27.6544 24.5304 27.5343 24.7707 27.294 24.8909C26.8134 25.4916 26.3329 26.0923 25.7321 26.693C25.3717 26.9333 25.1314 27.2937 24.771 27.534C24.5307 27.6542 24.4106 27.8945 24.1703 28.0146L24.0501 28.1347C23.5696 28.4952 23.089 28.7355 22.6084 28.9758C22.1278 29.216 21.5271 29.4563 21.0465 29.6966C20.8062 29.8168 20.566 29.8168 20.3257 29.9369C19.725 30.057 19.1242 30.2973 18.5235 30.2973C18.2832 30.2973 18.1631 30.2973 17.9228 30.4175C17.2019 30.4175 16.3609 30.4175 15.6401 30.4175C15.5199 30.4175 15.3998 30.4175 15.2796 30.4175C14.9192 30.4175 14.5588 30.2973 14.0782 30.2973C13.8379 30.2973 13.7178 30.2973 13.4775 30.1772C12.8768 30.057 12.276 29.9369 11.6753 29.8168C11.435 29.6966 11.1947 29.6966 10.9545 29.5765C10.4739 29.3362 9.99331 29.0959 9.51274 28.8556C8.91202 28.6153 8.43144 28.2549 7.95087 28.0146C6.62929 27.1736 5.54799 26.0923 4.58684 24.8909C4.4667 24.6506 4.22641 24.4103 4.10627 24.17L3.98613 24.0499C3.62569 23.5693 3.38541 23.0887 3.14512 22.6081C2.66455 21.7671 2.30411 20.806 2.06383 19.8448C2.06383 19.7247 2.06383 19.6045 2.06383 19.4844C1.94368 18.8837 1.82354 18.283 1.7034 17.5621C1.58325 16.8412 1.58325 16.1204 1.58325 15.3995V15.2794C1.58325 15.0391 1.58325 14.9189 1.58325 14.6787C1.58325 14.4384 1.58325 14.1981 1.7034 14.0779C1.82354 13.5974 1.82354 13.1168 1.94368 12.6362C2.06383 12.2758 2.06383 12.0355 2.18397 11.6751C2.30411 11.4348 2.30411 11.1945 2.42426 10.9542C2.66455 10.4736 2.90483 9.87291 3.14512 9.39233C3.38541 8.91176 3.74584 8.43118 3.98613 7.95061L4.10627 7.83046C4.22641 7.71032 4.34656 7.59017 4.4667 7.34989C4.58684 7.1096 4.70699 7.1096 4.82713 7.34989C5.18756 7.71032 5.66814 8.19089 6.02857 8.55132C6.26886 8.79161 6.389 9.0319 6.50914 9.15204C6.62929 9.27219 6.62929 9.39233 6.50914 9.51248C6.14871 9.99305 5.90843 10.4736 5.66814 10.9542C5.42785 11.4348 5.18756 12.0355 5.06742 12.5161C4.94728 12.7564 4.94728 12.8765 4.94728 13.1168C4.82713 13.3571 4.82713 13.7175 4.70699 13.9578C4.70699 14.0779 4.70699 14.0779 4.70699 14.1981C4.70699 14.4384 4.70699 14.4384 4.94728 14.4384C5.18756 14.4384 5.42785 14.4384 5.66814 14.4384C5.90843 14.4384 5.90843 14.4384 5.90843 14.6787C5.90843 15.5197 5.90843 16.2405 5.90843 17.0815C5.90843 17.3218 5.90843 17.3218 5.66814 17.3218C5.42785 17.3218 5.18756 17.3218 4.82713 17.3218C4.58684 17.3218 4.58684 17.3218 4.58684 17.5621C4.58684 17.6822 4.58684 17.6822 4.58684 17.8024C4.82713 18.4031 4.94728 18.8837 5.06742 19.3643C5.18756 19.965 5.42785 20.4456 5.66814 21.0463C5.78828 21.2866 5.90843 21.5268 6.02857 21.7671C6.14871 21.8873 6.26886 22.1276 6.389 22.2477C6.389 22.3679 6.50914 22.3679 6.50914 22.488C7.35015 23.6894 8.3113 24.6506 9.51274 25.3714C9.99331 25.7319 10.4739 25.9722 10.9545 26.2125C10.9545 26.2125 11.0746 26.2125 11.1947 26.3326C12.1559 26.8132 13.117 27.1736 14.1983 27.2937C14.4386 27.2937 14.4386 27.2937 14.4386 27.0535C14.4386 26.8132 14.4386 26.5729 14.4386 26.3326C14.4386 26.0923 14.5588 25.9722 14.7991 25.9722C15.5199 25.9722 16.1206 25.852 16.8415 25.9722C16.9616 25.9722 17.0818 25.9722 17.3221 25.9722C17.5624 25.9722 17.5624 25.9722 17.5624 26.2125C17.5624 26.4527 17.5624 26.693 17.5624 26.9333C17.5624 27.2937 17.5624 27.2937 17.9228 27.1736H18.0429C18.5235 27.0535 19.0041 26.9333 19.4847 26.8132C20.0854 26.693 20.566 26.4527 21.1667 26.2125C21.6473 25.9722 22.1278 25.7319 22.6084 25.3714C23.2091 25.011 23.6897 24.5304 24.1703 24.0499C24.6508 23.5693 25.1314 23.0887 25.4918 22.488C25.4918 22.3679 25.612 22.3679 25.612 22.2477C25.7321 22.0074 25.8523 21.8873 25.9724 21.647C26.0926 21.4067 26.2127 21.1664 26.3329 20.9261C26.5731 20.4456 26.8134 19.8448 26.9336 19.3643C27.0537 18.8837 27.1739 18.4031 27.294 17.9225C27.294 17.8024 27.294 17.6822 27.294 17.6822C27.294 17.5621 27.294 17.442 27.1739 17.442C26.8134 17.442 26.5731 17.442 26.2127 17.442C25.9724 17.442 25.9724 17.442 25.9724 17.2017C25.9724 16.3607 25.9724 15.5197 25.9724 14.6787C25.9724 14.4384 25.9724 14.4384 26.2127 14.4384C26.453 14.4384 26.8134 14.4384 27.0537 14.4384C27.1739 14.4384 27.294 14.3182 27.294 14.1981C27.294 14.0779 27.294 13.9578 27.294 13.9578C27.1739 13.4772 27.0537 12.9966 26.9336 12.5161C26.8134 11.9153 26.5731 11.4348 26.3329 10.9542C26.0926 10.4736 25.8523 9.99305 25.4918 9.51248C24.6508 8.31104 23.6897 7.34989 22.4883 6.50888C22.0077 6.14845 21.5271 5.90816 21.0465 5.66788C20.566 5.42759 19.9652 5.1873 19.3645 5.06716C18.8839 4.94701 18.4034 4.82687 17.9228 4.70673C17.8027 4.70673 17.6825 4.70673 17.5624 4.70673C17.4422 4.70673 17.3221 4.70673 17.3221 4.82687C17.3221 5.06716 17.3221 5.42759 17.3221 5.66788C17.3221 5.90816 17.3221 5.90816 17.0818 5.90816C16.2408 5.90816 15.5199 5.90816 14.6789 5.90816C14.4386 5.90816 14.4386 5.90816 14.4386 5.66788C14.4386 5.42759 14.4386 5.06716 14.4386 4.82687C14.4386 4.70673 14.3185 4.58658 14.1983 4.58658C14.0782 4.58658 13.9581 4.58658 13.9581 4.58658C13.5976 4.70673 13.117 4.82687 12.7566 4.94701C12.6365 4.94701 12.6365 4.94701 12.5163 4.94701C12.0358 5.06716 11.6753 5.30745 11.1947 5.42759C11.0746 5.42759 10.9545 5.42759 10.8343 5.42759C10.2336 4.82687 9.63288 4.22615 9.15231 3.74557L9.03216 3.62543C8.91202 3.38515 8.91202 3.38515 9.15231 3.265C9.27245 3.265 9.39259 3.14486 9.51274 3.14486C9.99331 2.90457 10.594 2.66428 11.0746 2.424C12.0358 2.06357 13.117 1.82328 14.1983 1.70313C14.5588 1.70313 15.0393 1.58299 15.3998 1.58299C15.5199 1.58299 15.6401 1.58299 15.7602 1.58299C16.0005 1.58299 16.2408 1.58299 16.6012 1.58299C16.7214 1.58299 16.8415 1.58299 16.9616 1.58299C17.3221 1.58299 17.8027 1.58299 18.1631 1.70313C18.2832 1.70313 18.5235 1.70313 18.6437 1.82328C19.4847 1.94342 20.2055 2.18371 20.9264 2.424C21.5271 2.66428 22.1278 2.90457 22.7285 3.14486C23.2091 3.38515 23.8098 3.74558 24.2904 3.98586C24.771 4.22615 25.1314 4.58658 25.4918 4.94701C26.2127 5.54773 26.8134 6.14845 27.294 6.74917C27.6544 7.1096 27.8947 7.59017 28.2552 7.95061C28.4954 8.43118 28.8559 8.79161 29.0962 9.27219C29.0962 9.27219 29.2163 9.39233 29.0962 9.39233C29.3364 10.4736 29.6969 11.5549 30.0573 12.6362Z" fill="#434969"/>
<path d="M12.3912 2.00418C12.6315 1.99998 12.8696 1.87567 13.23 1.86938C13.5904 1.86308 13.9487 1.73667 14.3091 1.73038C15.0277 1.59767 15.7485 1.58509 16.4692 1.57251C16.8296 1.56622 17.19 1.55993 17.6726 1.67167C17.7927 1.66957 18.0329 1.66538 18.2753 1.78131C18.878 1.89095 19.4807 2.00059 20.0856 2.23036C21.4132 2.56767 22.7451 3.14523 23.8409 3.96724C23.961 3.96514 23.9631 4.08527 24.0833 4.08317C24.3256 4.1991 24.5679 4.31503 24.6923 4.55319C25.3013 5.02321 25.9103 5.49322 26.5214 6.08337C26.7679 6.43955 27.1325 6.67351 27.3791 7.02969C27.5034 7.26785 27.7457 7.38378 27.87 7.62193L27.9923 7.73996C28.361 8.21417 28.6097 8.69048 28.8583 9.16679C29.1069 9.6431 29.3577 10.2395 29.6063 10.7158C29.7306 10.954 29.7348 11.1942 29.8591 11.4324C29.9898 12.0309 30.2405 12.6274 30.251 13.228C30.2552 13.4682 30.2573 13.5884 30.3816 13.8265C30.3942 14.5473 30.4088 15.3881 30.4214 16.1089C30.4235 16.229 30.4256 16.3492 30.4277 16.4693C30.434 16.8297 30.3202 17.1921 30.3286 17.6726C30.3327 17.9129 30.3348 18.033 30.2189 18.2754C30.1093 18.8781 29.9996 19.4808 29.89 20.0835C29.7741 20.3259 29.7783 20.5661 29.6623 20.8085C29.4305 21.2932 29.1986 21.7779 28.9667 22.2626C28.737 22.8674 28.385 23.3542 28.1531 23.8389C27.3353 25.1749 26.273 26.2749 25.0886 27.2569C24.8504 27.3812 24.6143 27.6257 24.3762 27.75L24.2582 27.8722C23.784 28.241 23.3076 28.4896 22.8313 28.7382C21.9988 29.2334 21.0441 29.6106 20.0873 29.8676C19.9672 29.8697 19.8471 29.8718 19.7269 29.8739C19.1284 30.0045 18.5299 30.1351 17.8112 30.2678C17.0926 30.4005 16.3718 30.4131 15.6511 30.4257L15.5309 30.4278C15.2907 30.432 15.1706 30.4341 14.9303 30.4383C14.6901 30.4424 14.4498 30.4466 14.3276 30.3286C13.845 30.2169 13.3645 30.2253 12.8819 30.1135C12.5194 29.9997 12.2792 30.0039 11.9167 29.89C11.6744 29.7741 11.4341 29.7783 11.1918 29.6624C10.7071 29.4305 10.1022 29.2007 9.61754 28.9689C9.13285 28.737 8.64605 28.385 8.16136 28.1532L8.03914 28.0351C7.91692 27.9171 7.79469 27.7991 7.55235 27.6831C7.31 27.5672 7.3079 27.4471 7.54605 27.3228C7.90014 26.9561 8.37225 26.4672 8.72634 26.1006C8.9624 25.8561 9.20055 25.7318 9.31858 25.6096C9.43661 25.4873 9.55674 25.4852 9.67896 25.6033C10.1657 25.9553 10.6504 26.1871 11.1351 26.419C11.6198 26.6509 12.2247 26.8806 12.7073 26.9924C12.9496 27.1083 13.0697 27.1062 13.31 27.102C13.5523 27.2179 13.9127 27.2116 14.155 27.3276C14.2752 27.3255 14.2752 27.3255 14.3953 27.3234C14.6356 27.3192 14.6356 27.3192 14.6314 27.0789C14.6272 26.8387 14.623 26.5984 14.6188 26.3582C14.6146 26.1179 14.6146 26.1179 14.8548 26.1137C15.6957 26.0991 16.4165 26.0865 17.2573 26.0718C17.4976 26.0676 17.4976 26.0676 17.5018 26.3079C17.506 26.5481 17.5102 26.7884 17.5165 27.1487C17.5207 27.389 17.5207 27.389 17.7609 27.3848C17.881 27.3827 17.881 27.3827 18.0012 27.3806C18.5976 27.1299 19.076 27.0014 19.5544 26.8728C20.1529 26.7422 20.6292 26.4936 21.2257 26.2429C21.4638 26.1185 21.702 25.9942 21.9401 25.8699C22.0582 25.7477 22.2963 25.6234 22.4143 25.5011C22.5345 25.499 22.5324 25.3789 22.6525 25.3768C23.8391 24.515 24.7833 23.5372 25.4831 22.3234C25.8351 21.8366 26.0669 21.3519 26.2988 20.8672C26.2988 20.8672 26.2967 20.7471 26.4147 20.6248C26.8785 19.6554 27.2221 18.6881 27.3233 17.6049C27.3191 17.3647 27.3191 17.3647 27.0789 17.3689C26.8386 17.3731 26.5984 17.3773 26.3581 17.3814C26.1179 17.3856 25.9957 17.2676 25.9915 17.0274C25.9789 16.3066 25.8483 15.7081 25.9558 14.9852C25.9537 14.8651 25.9516 14.745 25.9474 14.5047C25.9432 14.2645 25.9432 14.2645 26.1835 14.2603C26.4237 14.2561 26.664 14.2519 26.9042 14.2477C27.2646 14.2414 27.2646 14.2414 27.1382 13.8831L27.1361 13.763C27.0076 13.2846 26.8791 12.8062 26.7506 12.3278C26.62 11.7293 26.3713 11.253 26.1206 10.6565C25.8719 10.1802 25.6233 9.7039 25.2545 9.22969C24.8837 8.63536 24.3948 8.16324 23.9059 7.69113C23.417 7.21901 22.9281 6.7469 22.3212 6.39701C22.2011 6.3991 22.199 6.27898 22.0789 6.28107C21.8365 6.16514 21.7143 6.04711 21.4719 5.93118C21.2296 5.81525 20.9872 5.69932 20.7449 5.58339C20.2602 5.35152 19.6554 5.12175 19.1728 5.01002C18.6902 4.89828 18.2076 4.78654 17.725 4.6748C17.6049 4.6769 17.4847 4.679 17.4847 4.679C17.3646 4.68109 17.2445 4.68319 17.2466 4.80331C17.2529 5.16369 17.2571 5.40394 17.2634 5.76432C17.2676 6.00457 17.2676 6.00457 17.0273 6.00876C16.1864 6.02344 15.3455 6.03812 14.5047 6.0528C14.2644 6.05699 14.2644 6.05699 14.2602 5.81674C14.256 5.57649 14.2497 5.21611 14.2455 4.97586C14.2435 4.85573 14.1212 4.73771 14.0011 4.7398C13.881 4.7419 13.7609 4.744 13.7609 4.744C13.2824 4.87251 12.804 5.00102 12.3256 5.12953C11.7271 5.26014 11.2508 5.50878 10.7745 5.75742C10.2982 6.00606 9.82187 6.2547 9.34766 6.62346C8.16109 7.48531 7.21686 8.46308 6.39695 9.67902C6.04496 10.1658 5.81309 10.6505 5.58123 11.1352C5.34937 11.6199 5.1196 12.2247 5.00996 12.8274C4.89822 13.31 4.78648 13.7926 4.67474 14.2752C4.67684 14.3954 4.67894 14.5155 4.68104 14.6356C4.68313 14.7557 4.68523 14.8759 4.80535 14.8738C5.04561 14.8696 5.40598 14.8633 5.64623 14.8591C5.88648 14.8549 5.88648 14.8549 5.89068 15.0951C5.90535 15.936 5.91793 16.6568 5.93261 17.4977C5.93681 17.7379 5.93681 17.7379 5.69655 17.7421C5.4563 17.7463 5.09593 17.7526 4.85568 17.7568C4.73555 17.7589 4.61752 17.8811 4.61962 18.0012C4.62172 18.1213 4.62381 18.2415 4.62381 18.2415C4.75023 18.5997 4.87874 19.0782 5.00516 19.4364C5.00725 19.5566 5.00725 19.5566 5.00935 19.6767C5.13786 20.1551 5.38441 20.5113 5.51292 20.9897C5.51502 21.1098 5.51711 21.2299 5.51921 21.3501C4.92907 21.9612 4.33892 22.5723 3.86681 23.0612L3.74878 23.1834C3.51063 23.3077 3.51062 23.3077 3.38631 23.0695C3.38421 22.9494 3.26199 22.8314 3.25989 22.7113C3.01125 22.235 2.76052 21.6385 2.51188 21.1622C2.13473 20.2075 1.87561 19.1306 1.73661 18.0515C1.73032 17.6912 1.60181 17.2128 1.59552 16.8524C1.59342 16.7323 1.59132 16.6121 1.58923 16.492C1.58503 16.2518 1.58084 16.0115 1.57455 15.6511C1.57245 15.531 1.57035 15.4109 1.56826 15.2908C1.56197 14.9304 1.55358 14.4499 1.66742 14.0874C1.66532 13.9673 1.66113 13.727 1.77916 13.6048C1.8846 12.7618 2.11227 12.0369 2.33994 11.3119C2.56971 10.7071 2.79947 10.1023 3.02924 9.49747C3.26111 9.01278 3.611 8.40586 3.84286 7.92117C4.07472 7.43647 4.42881 7.06981 4.7829 6.70314C5.37094 5.9719 5.96109 5.36079 6.55333 4.8698C6.90741 4.50314 7.38372 4.2545 7.73781 3.88783C8.21411 3.6392 8.5682 3.27253 9.04451 3.02389C9.04451 3.02389 9.16254 2.90167 9.16463 3.02179C10.2416 2.76267 11.3164 2.38342 12.3912 2.00418Z" fill="#434969"/>
<path d="M17.3449 15.932C17.8087 15.4761 18.3652 14.9291 18.8289 14.4733C19.6637 13.6527 20.4985 12.8322 21.2405 12.1029C21.3333 12.0117 21.3333 12.0117 21.2405 11.9206C20.8695 11.5559 20.4058 11.1 20.0347 10.7354C20.0347 10.6442 19.942 10.6442 19.942 10.7354C19.2 11.3735 18.5507 12.0117 17.8087 12.7411C17.1594 13.3792 16.6029 13.9263 15.9536 14.5644L14.655 15.932C13.8202 16.7525 12.9855 17.573 12.1507 18.3023L10.6666 19.8522L10.7594 19.9433C10.8521 20.0345 10.8521 20.0345 10.9449 20.1257C11.2231 20.4904 11.5942 20.7639 11.9652 21.0374C12.0579 21.1285 12.0579 21.1285 12.1507 21.0374C12.4289 20.7639 12.7072 20.4904 12.9855 20.2169C13.3565 19.8522 13.8202 19.3963 14.1913 19.0317C14.284 19.0317 14.284 19.0317 14.3768 18.9405C14.9333 18.3935 15.4898 17.8465 16.0463 17.2995L17.3449 15.932Z" fill="#434969" stroke="#434969"/>
<path d="M16.3246 17.6869L17.4376 18.8721C18.2724 19.6926 19.1072 20.5131 19.942 21.3337L21.3333 19.9661C20.7768 19.4191 20.2202 18.8721 19.6637 18.3251C19.6637 18.1428 19.571 18.1428 19.4782 18.0516C19.1072 17.6869 18.7362 17.3223 18.3652 16.8664C18.0869 16.5929 17.8087 16.3194 17.7159 16.3194L16.3246 17.6869Z" fill="#434969"/>
<path d="M10.6666 12.0345L12.0579 13.402C12.8927 14.2225 13.7275 15.0431 14.284 15.5901L15.6753 14.2225C15.3043 13.8579 14.7478 13.3109 14.1913 12.7639L14.0985 12.6727C13.6347 12.2168 13.2637 11.8522 12.8927 11.4875C12.6145 11.214 12.3362 10.9405 12.0579 10.667L10.6666 12.0345Z" fill="#434969"/>
<path d="M16.3246 17.6869L17.4376 18.8721C18.2724 19.6926 19.1072 20.5131 19.942 21.3337L21.3333 19.9661C20.7768 19.4191 20.2202 18.8721 19.6637 18.3251C19.6637 18.1428 19.571 18.1428 19.4782 18.0516C19.1072 17.6869 18.7362 17.3223 18.3652 16.8664C18.0869 16.5929 17.8087 16.3194 17.7159 16.3194L16.3246 17.6869Z" stroke="#434969"/>
<path d="M10.6666 12.0345L12.0579 13.402C12.8927 14.2225 13.7275 15.0431 14.284 15.5901L15.6753 14.2225C15.3043 13.8579 14.7478 13.3109 14.1913 12.7639L14.0985 12.6727C13.6347 12.2168 13.2637 11.8522 12.8927 11.4875C12.6145 11.214 12.3362 10.9405 12.0579 10.667L10.6666 12.0345Z" stroke="#434969"/>
</g>
<defs>
<clipPath id="clip0_3141_23288">
<rect width="32" height="32" fill="white"/>
</clipPath>
</defs>
</svg>
