<svg width="82" height="82" viewBox="0 0 82 82" fill="none" xmlns="http://www.w3.org/2000/svg">
<g filter="url(#filter0_d_1225_10114)">
<rect x="10" y="6" width="62" height="62" rx="31" fill="#78909C"/>
</g>
<g clip-path="url(#clip0_1225_10114)">
<path d="M41.5558 55C40.6749 54.8191 39.7829 54.6843 38.9149 54.4508C35.5083 53.5332 33.2831 51.226 32.0362 47.9322C30.7094 44.4213 29.4801 40.8709 28.27 37.3156C27.4787 34.992 28.4714 33.0664 30.6263 32.5352C32.2584 32.1324 33.6556 32.9677 34.7282 34.9115C34.7282 34.6401 34.7282 34.3672 34.7282 34.0958C34.7282 31.1375 34.717 28.1791 34.733 25.2208C34.7442 23.1274 35.9176 21.7099 37.8135 21.4977C38.2515 21.4484 38.7055 21.5487 39.217 21.5832C39.2922 19.679 40.3057 18.5328 42.0353 18C42.4078 18 42.7819 18 43.1543 18C44.4428 18.3881 45.4195 19.1429 45.8479 20.5472C47.2595 20.0819 48.4472 20.3647 49.4655 21.3382C50.5238 22.3496 50.4806 23.7227 50.4678 25.0662C53.6666 24.4857 55.0685 26.806 54.9982 29.1592C54.8783 33.0993 55.0078 37.046 54.9439 40.9893C54.9199 42.5121 54.792 44.0612 54.4803 45.5461C53.5963 49.746 51.3742 52.877 47.2883 54.3159C46.3691 54.6399 45.386 54.7764 44.4332 55C43.4741 55 42.5149 55 41.5558 55ZM36.9391 33.0286C36.9391 35.6876 36.9359 38.3451 36.9407 41.0041C36.9423 41.6668 36.6737 42.1256 36.0215 42.244C35.4108 42.3542 35.0016 42.0516 34.7842 41.4629C34.7378 41.3363 34.6835 41.2113 34.6339 41.0847C33.8922 39.2413 33.16 37.3946 32.4071 35.5561C32.1162 34.844 31.5614 34.5809 30.9316 34.8391C30.2714 35.1104 30.1083 35.6416 30.2794 36.3142C30.3066 36.4194 30.3321 36.5263 30.3689 36.6299C31.619 40.1441 32.8291 43.6747 34.1336 47.1675C34.9792 49.4319 36.4467 51.1734 38.7391 51.9857C40.9979 52.7849 43.3174 52.9428 45.6609 52.4001C48.3257 51.7818 50.2488 50.1851 51.4462 47.6724C52.3542 45.7697 52.7011 43.7224 52.717 41.6274C52.749 37.3255 52.7314 33.022 52.7282 28.7201C52.7282 27.8173 52.2662 27.2434 51.5773 27.2418C50.8947 27.2418 50.4582 27.8091 50.455 28.7349C50.4487 31.1194 50.4534 33.5038 50.4519 35.8883C50.4519 36.1612 50.4614 36.4424 50.4071 36.7056C50.2792 37.3206 49.8955 37.6659 49.2721 37.6215C48.6646 37.5788 48.2906 37.2351 48.2458 36.5822C48.2298 36.3372 48.2346 36.0889 48.2346 35.8422C48.2362 31.9778 48.241 28.1133 48.241 24.2505C48.241 23.1981 47.8158 22.6176 47.0709 22.6242C46.3275 22.6308 45.9391 23.1915 45.9375 24.2785C45.9359 27.7598 45.9375 31.2394 45.9359 34.7207C45.9359 34.9937 45.9455 35.2732 45.9023 35.5396C45.7968 36.1777 45.3971 36.4836 44.7817 36.4638C44.1966 36.4457 43.8481 36.1201 43.7602 35.5199C43.7362 35.3588 43.7362 35.1927 43.7362 35.0282C43.7426 31.1375 43.7506 27.2451 43.7554 23.3543C43.757 22.7245 43.7938 22.0897 43.7362 21.4648C43.6755 20.7956 43.3078 20.3433 42.606 20.3121C41.9842 20.2841 41.503 20.7923 41.4391 21.5175C41.4199 21.7345 41.4343 21.9549 41.4343 22.1752C41.4343 26.3406 41.4343 30.506 41.4343 34.6714C41.4343 34.8901 41.4407 35.1104 41.4311 35.3292C41.3991 36.0659 40.9467 36.5756 40.3281 36.5806C39.695 36.5855 39.2554 36.1168 39.2522 35.3209C39.2362 32.1702 39.2458 29.0178 39.241 25.8654C39.241 25.5102 39.2522 25.15 39.2027 24.7998C39.1147 24.1749 38.7183 23.8082 38.1236 23.7868C37.4746 23.7638 37.0989 24.1831 36.9582 24.8096C36.9119 25.0185 36.9407 25.2471 36.9407 25.4658C36.9391 27.9867 36.9407 30.5076 36.9391 33.0286Z" fill="white"/>
</g>
<defs>
<filter id="filter0_d_1225_10114" x="0" y="0" width="82" height="82" filterUnits="userSpaceOnUse" color-interpolation-filters="sRGB">
<feFlood flood-opacity="0" result="BackgroundImageFix"/>
<feColorMatrix in="SourceAlpha" type="matrix" values="0 0 0 0 0 0 0 0 0 0 0 0 0 0 0 0 0 0 127 0" result="hardAlpha"/>
<feOffset dy="4"/>
<feGaussianBlur stdDeviation="5"/>
<feComposite in2="hardAlpha" operator="out"/>
<feColorMatrix type="matrix" values="0 0 0 0 0 0 0 0 0 0 0 0 0 0 0 0 0 0 0.3 0"/>
<feBlend mode="normal" in2="BackgroundImageFix" result="effect1_dropShadow_1225_10114"/>
<feBlend mode="normal" in="SourceGraphic" in2="effect1_dropShadow_1225_10114" result="shape"/>
</filter>
<clipPath id="clip0_1225_10114">
<rect width="27" height="37" fill="white" transform="translate(28 18)"/>
</clipPath>
</defs>
</svg>
