<svg width="48" height="48" viewBox="0 0 48 48" fill="none" xmlns="http://www.w3.org/2000/svg">
<g clip-path="url(#clip0_10588_55724)">
<path d="M6 4H44V7.6346H42.1V14.9038H44V17.3269H38.3V14.9038H40.2V7.6346H38.3V11.6923H9.8V7.6346H6V4Z" fill="white"/>
<path d="M9.8 11.6923L24.0502 18L38.3 11.6923H9.8Z" fill="white"/>
<path d="M25.102 20.0001C26.4695 20.0001 27.5887 20.2459 28.4597 20.7376C29.3401 21.2209 29.9911 21.8418 30.4125 22.6001C30.8434 23.3584 31.0588 24.1418 31.0588 24.9501C31.0588 25.9418 30.7918 26.7834 30.258 27.4751C29.9293 27.9086 29.5251 28.2537 29.0455 28.5105C29.8663 28.8091 30.5186 29.2598 31.0026 29.8626C31.6676 30.6793 32 31.6084 32 32.6501C32 33.7168 31.7706 34.6501 31.3117 35.4501C30.8527 36.2501 30.169 36.8751 29.2605 37.3251C28.3614 37.7751 27.2468 38.0001 25.9169 38.0001H18V35.1626H25.4954C26.0855 35.1626 26.6146 35.0584 27.0829 34.8501C27.5512 34.6334 27.9165 34.3334 28.1788 33.9501C28.4504 33.5584 28.5862 33.0959 28.5862 32.5626C28.5862 32.0793 28.4691 31.6459 28.2349 31.2626C28.0008 30.8793 27.6589 30.5751 27.2094 30.3501C26.7598 30.1168 26.2213 30.0001 25.5938 30.0001H23V27.1876H25.0599C25.5469 27.1876 25.9824 27.1043 26.3664 26.9376C26.7504 26.7709 27.0548 26.5251 27.2796 26.2001C27.5044 25.8751 27.6168 25.4751 27.6168 25.0001C27.6168 24.3751 27.392 23.8543 26.9425 23.4376C26.4929 23.0209 25.8654 22.8126 25.0599 22.8126L18 22.8125V20L25.102 20.0001Z" fill="white"/>
<path d="M18 25.0001V33H21V25.0001H18Z" fill="white"/>
<path d="M6 40V21H8.23529V38C8.23529 40.2091 10.2368 42 12.7059 42H37.2941C39.7632 42 41.7647 40.2091 41.7647 38V21H44V40C44 42.2091 41.9984 44 39.5294 44H10.4706C8.00155 44 6 42.2091 6 40Z" fill="white" stroke="white" stroke-width="0.5"/>
</g>
<defs>
<clipPath id="clip0_10588_55724">
<rect width="48" height="48" fill="white"/>
</clipPath>
</defs>
</svg>
