<svg width="161" height="160" viewBox="0 0 161 160" fill="none" xmlns="http://www.w3.org/2000/svg">
<path d="M0.00488281 6C0.00488281 2.6863 2.69117 0 6.00488 0H154.005C157.319 0 160.005 2.68629 160.005 6V154C160.005 157.314 157.319 160 154.005 160H6.00489C2.69118 160 0.00488281 157.314 0.00488281 154V6Z" fill="#004C3F"/>
<mask id="mask0_11197_57895" style="mask-type:alpha" maskUnits="userSpaceOnUse" x="0" y="0" width="161" height="160">
<path d="M0.00244141 6C0.00244141 2.6863 2.68873 0 6.00244 0H154.002C157.316 0 160.002 2.68629 160.002 6V154C160.002 157.314 157.316 160 154.002 160H6.00245C2.68874 160 0.00244141 157.314 0.00244141 154V6Z" fill="#FE0101"/>
</mask>
<g mask="url(#mask0_11197_57895)">
<path d="M-40.3232 70L58.1575 87.3648L40.4859 187.586L-57.9949 170.221L-40.3232 70Z" fill="white" fill-opacity="0.1"/>
<path d="M-14.5601 140.328L83.9207 122.963L103.957 236.595L5.47628 253.96L-14.5601 140.328Z" fill="white" fill-opacity="0.2"/>
<path d="M54.4497 -14.5029L128.396 -81.8231L206.073 3.49902L132.127 70.8192L54.4497 -14.5029Z" fill="white" fill-opacity="0.1"/>
</g>
</svg>
