<svg width="161" height="160" viewBox="0 0 161 160" fill="none" xmlns="http://www.w3.org/2000/svg">
<path d="M0.012207 6C0.012207 2.6863 2.6985 0 6.01221 0H154.012C157.326 0 160.012 2.68629 160.012 6V154C160.012 157.314 157.326 160 154.012 160H6.01221C2.6985 160 0.012207 157.314 0.012207 154V6Z" fill="#8C8D92"/>
<mask id="mask0_11197_57968" style="mask-type:alpha" maskUnits="userSpaceOnUse" x="0" y="0" width="161" height="160">
<path d="M0.00976562 6C0.00976562 2.6863 2.69606 0 6.00977 0H154.01C157.323 0 160.01 2.68629 160.01 6V154C160.01 157.314 157.323 160 154.01 160H6.00977C2.69606 160 0.00976562 157.314 0.00976562 154V6Z" fill="#FE0101"/>
</mask>
<g mask="url(#mask0_11197_57968)">
<path d="M-40.3159 70L58.1649 87.3648L40.4932 187.586L-57.9876 170.221L-40.3159 70Z" fill="white" fill-opacity="0.1"/>
<path d="M-14.5527 140.328L83.928 122.963L103.964 236.595L5.4836 253.96L-14.5527 140.328Z" fill="white" fill-opacity="0.2"/>
<path d="M54.457 -14.5029L128.403 -81.8231L206.08 3.49902L132.134 70.8192L54.457 -14.5029Z" fill="white" fill-opacity="0.1"/>
</g>
</svg>
