<svg width="161" height="160" viewBox="0 0 161 160" fill="none" xmlns="http://www.w3.org/2000/svg">
<path d="M0.00976562 6C0.00976562 2.6863 2.69606 0 6.00977 0H154.01C157.323 0 160.01 2.68629 160.01 6V154C160.01 157.314 157.323 160 154.01 160H6.00977C2.69606 160 0.00976562 157.314 0.00976562 154V6Z" fill="#C24343"/>
<mask id="mask0_11197_57944" style="mask-type:alpha" maskUnits="userSpaceOnUse" x="0" y="0" width="161" height="160">
<path d="M0.00732422 6C0.00732422 2.6863 2.69362 0 6.00732 0H154.007C157.321 0 160.007 2.68629 160.007 6V154C160.007 157.314 157.321 160 154.007 160H6.00733C2.69362 160 0.00732422 157.314 0.00732422 154V6Z" fill="#FE0101"/>
</mask>
<g mask="url(#mask0_11197_57944)">
<path d="M-40.3184 70L58.1624 87.3648L40.4908 187.586L-57.99 170.221L-40.3184 70Z" fill="white" fill-opacity="0.1"/>
<path d="M-14.5552 140.328L83.9256 122.963L103.962 236.595L5.48116 253.96L-14.5552 140.328Z" fill="white" fill-opacity="0.2"/>
<path d="M54.4546 -14.5029L128.4 -81.8231L206.078 3.49902L132.132 70.8192L54.4546 -14.5029Z" fill="white" fill-opacity="0.1"/>
</g>
</svg>
