<svg width="161" height="160" viewBox="0 0 161 160" fill="none" xmlns="http://www.w3.org/2000/svg">
<path d="M0.00244141 6C0.00244141 2.6863 2.68873 0 6.00244 0H154.002C157.316 0 160.002 2.68629 160.002 6V154C160.002 157.314 157.316 160 154.002 160H6.00245C2.68874 160 0.00244141 157.314 0.00244141 154V6Z" fill="#007F8F"/>
<mask id="mask0_10588_56017" style="mask-type:alpha" maskUnits="userSpaceOnUse" x="0" y="0" width="160" height="160">
<path d="M0 6C0 2.6863 2.68629 0 6 0H154C157.314 0 160 2.68629 160 6V154C160 157.314 157.314 160 154 160H6C2.6863 160 0 157.314 0 154V6Z" fill="#FE0101"/>
</mask>
<g mask="url(#mask0_10588_56017)">
<path d="M-40.3257 70L58.1551 87.3648L40.4835 187.586L-57.9973 170.221L-40.3257 70Z" fill="white" fill-opacity="0.1"/>
<path d="M-14.5625 140.328L83.9183 122.963L103.955 236.595L5.47383 253.96L-14.5625 140.328Z" fill="white" fill-opacity="0.2"/>
<path d="M54.4473 -14.5029L128.393 -81.8231L206.07 3.49902L132.124 70.8192L54.4473 -14.5029Z" fill="white" fill-opacity="0.1"/>
</g>
</svg>
