<svg width="161" height="160" viewBox="0 0 161 160" fill="none" xmlns="http://www.w3.org/2000/svg">
<path d="M0.00732422 6C0.00732422 2.6863 2.69362 0 6.00732 0H154.007C157.321 0 160.007 2.68629 160.007 6V154C160.007 157.314 157.321 160 154.007 160H6.00733C2.69362 160 0.00732422 157.314 0.00732422 154V6Z" fill="#43A047"/>
<mask id="mask0_11197_57920" style="mask-type:alpha" maskUnits="userSpaceOnUse" x="0" y="0" width="161" height="160">
<path d="M0.00488281 6C0.00488281 2.6863 2.69117 0 6.00488 0H154.005C157.319 0 160.005 2.68629 160.005 6V154C160.005 157.314 157.319 160 154.005 160H6.00489C2.69118 160 0.00488281 157.314 0.00488281 154V6Z" fill="#FE0101"/>
</mask>
<g mask="url(#mask0_11197_57920)">
<path d="M-40.3208 70L58.16 87.3648L40.4883 187.586L-57.9924 170.221L-40.3208 70Z" fill="white" fill-opacity="0.1"/>
<path d="M-14.5576 140.328L83.9232 122.963L103.959 236.595L5.47872 253.96L-14.5576 140.328Z" fill="white" fill-opacity="0.2"/>
<path d="M54.4521 -14.5029L128.398 -81.8231L206.075 3.49902L132.129 70.8192L54.4521 -14.5029Z" fill="white" fill-opacity="0.1"/>
</g>
</svg>
