<svg width="48" height="48" viewBox="0 0 48 48" fill="none" xmlns="http://www.w3.org/2000/svg">
<g clip-path="url(#clip0_10588_55666)">
<path fill-rule="evenodd" clip-rule="evenodd" d="M38 19.6769L28.3231 10H10V38H38V19.6769ZM10 6H28.34C29.4 6 30.42 6.42 31.16 7.18L40.82 16.84C41.58 17.58 42 18.6 42 19.66V38C42 40.2 40.2 42 38 42H10C7.8 42 6 40.2 6 38V10C6 7.8 7.8 6 10 6Z" fill="white"/>
<path d="M16 30H32C33.1 30 34 30.9 34 32C34 33.1 33.1 34 32 34H16C14.9 34 14 33.1 14 32C14 30.9 14.9 30 16 30ZM16 22H32C33.1 22 34 22.9 34 24C34 25.1 33.1 26 32 26H16C14.9 26 14 25.1 14 24C14 22.9 14.9 22 16 22ZM16 14H26C27.1 14 28 14.9 28 16C28 17.1 27.1 18 26 18H16C14.9 18 14 17.1 14 16C14 14.9 14.9 14 16 14Z" fill="white"/>
</g>
<defs>
<clipPath id="clip0_10588_55666">
<rect width="48" height="48" fill="white"/>
</clipPath>
</defs>
</svg>
