<svg width="14" height="14" viewBox="0 0 14 14" fill="none" xmlns="http://www.w3.org/2000/svg">
<path d="M8.26 4.79967L7 6.05967L5.74 4.79967C5.48 4.53967 5.06 4.53967 4.8 4.79967C4.54 5.05967 4.54 5.47967 4.8 5.73967L6.06 6.99967L4.8 8.25968C4.54 8.51968 4.54 8.93968 4.8 9.19967C5.06 9.45967 5.48 9.45967 5.74 9.19967L7 7.93967L8.26 9.19967C8.52 9.45967 8.94 9.45967 9.2 9.19967C9.46 8.93968 9.46 8.51968 9.2 8.25968L7.94 6.99967L9.2 5.73967C9.46 5.47967 9.46 5.05967 9.2 4.79967C8.94 4.54634 8.51333 4.54634 8.26 4.79967ZM7 0.333008C3.31333 0.333008 0.333334 3.31301 0.333334 6.99967C0.333334 10.6863 3.31333 13.6663 7 13.6663C10.6867 13.6663 13.6667 10.6863 13.6667 6.99967C13.6667 3.31301 10.6867 0.333008 7 0.333008ZM7 12.333C4.06 12.333 1.66667 9.93967 1.66667 6.99967C1.66667 4.05967 4.06 1.66634 7 1.66634C9.94 1.66634 12.3333 4.05967 12.3333 6.99967C12.3333 9.93967 9.94 12.333 7 12.333Z" fill="white"/>
</svg>
