<svg width="20" height="23" viewBox="0 0 20 23" fill="none" xmlns="http://www.w3.org/2000/svg">
<path d="M12.0509 0H7.66998C7.0676 0 6.57475 0.492857 6.57475 1.09524C6.57475 1.69762 7.0676 2.19048 7.66998 2.19048H12.0509C12.6533 2.19048 13.1462 1.69762 13.1462 1.09524C13.1462 0.492857 12.6533 0 12.0509 0ZM9.86046 14.2381C10.4628 14.2381 10.9557 13.7452 10.9557 13.1429V8.7619C10.9557 8.15952 10.4628 7.66667 9.86046 7.66667C9.25808 7.66667 8.76522 8.15952 8.76522 8.7619V13.1429C8.76522 13.7452 9.25808 14.2381 9.86046 14.2381ZM17.56 6.99857L18.3814 6.17714C18.7976 5.76095 18.8086 5.07095 18.3814 4.64381L18.3705 4.63286C17.9433 4.20571 17.2643 4.21667 16.8371 4.63286L16.0157 5.45429C14.3181 4.09619 12.1824 3.28571 9.86046 3.28571C4.60332 3.28571 0.134747 7.62286 0.00331842 12.88C-0.139063 18.4438 4.31856 23 9.86046 23C15.3147 23 19.7176 18.5862 19.7176 13.1429C19.7176 10.821 18.9071 8.68524 17.56 6.99857ZM9.86046 20.8095C5.62189 20.8095 2.19379 17.3814 2.19379 13.1429C2.19379 8.90429 5.62189 5.47619 9.86046 5.47619C14.099 5.47619 17.5271 8.90429 17.5271 13.1429C17.5271 17.3814 14.099 20.8095 9.86046 20.8095Z" fill="#8F94AC"/>
</svg>
