<svg width="48" height="48" viewBox="0 0 48 48" fill="none" xmlns="http://www.w3.org/2000/svg">
<g clip-path="url(#clip0_11197_58542)">
<path d="M40 8H8C5.78 8 4.02 9.78 4.02 12L4 36C4 38.22 5.78 40 8 40H40C42.22 40 44 38.22 44 36V12C44 9.78 42.22 8 40 8ZM38 36H10C8.9 36 8 35.1 8 34V16H40V34C40 35.1 39.1 36 38 36ZM40 14H8V12H40V14Z" fill="white"/>
<path d="M30.92 19.01C30.72 18.42 30.16 18 29.5 18H18.5C17.84 18 17.29 18.42 17.08 19.01L15.11 24.68C15.04 24.89 15 25.11 15 25.34V32.5C15 33.33 15.67 34 16.5 34C17.33 34 18 33.33 18 32.5V32H30V32.5C30 33.32 30.67 34 31.5 34C32.32 34 33 33.33 33 32.5V25.34C33 25.12 32.96 24.89 32.89 24.68L30.92 19.01ZM18.5 29C17.67 29 17 28.33 17 27.5C17 26.67 17.67 26 18.5 26C19.33 26 20 26.67 20 27.5C20 28.33 19.33 29 18.5 29ZM29.5 29C28.67 29 28 28.33 28 27.5C28 26.67 28.67 26 29.5 26C30.33 26 31 26.67 31 27.5C31 28.33 30.33 29 29.5 29ZM17 24L18.27 20.18C18.41 19.78 18.79 19.5 19.22 19.5H28.78C29.21 19.5 29.59 19.78 29.73 20.18L31 24H17Z" fill="white"/>
</g>
<defs>
<clipPath id="clip0_11197_58542">
<rect width="48" height="48" fill="white"/>
</clipPath>
</defs>
</svg>
