<svg width="19" height="18" viewBox="0 0 19 18" fill="none" xmlns="http://www.w3.org/2000/svg">
<path d="M1.66186 6.2447L6.59083 5.81698L8.51558 1.28517C8.86183 0.460281 10.0431 0.460281 10.3894 1.28517L12.3141 5.82716L17.2329 6.2447C18.1291 6.31598 18.4957 7.4362 17.8134 8.02687L14.0759 11.2653L15.1962 16.0721C15.3998 16.9479 14.4527 17.6404 13.6788 17.1719L9.45249 14.626L5.2262 17.1821C4.45223 17.6506 3.50513 16.9581 3.70881 16.0823L4.82903 11.2653L1.09156 8.02687C0.409248 7.4362 0.76568 6.31598 1.66186 6.2447ZM9.45249 12.7216V3.25065L7.71105 7.36492L3.25054 7.7519L6.63157 10.6848L5.61318 15.0435L9.45249 12.7216Z" fill="#F2BA14"/>
</svg>
