<svg width="19" height="18" viewBox="0 0 19 18" fill="none" xmlns="http://www.w3.org/2000/svg">
<path d="M17.2401 6.2447L12.3111 5.81698L10.3864 1.28517C10.0402 0.460281 8.85883 0.460281 8.51258 1.28517L6.58783 5.82716L1.66904 6.2447C0.772866 6.31598 0.406248 7.43621 1.08856 8.02687L4.82603 11.2653L3.70581 16.0721C3.50213 16.9479 4.44923 17.6404 5.2232 17.1719L9.44949 14.626L13.6758 17.1821C14.4497 17.6506 15.3968 16.9581 15.1932 16.0823L14.0729 11.2653L17.8104 8.02687C18.4927 7.43621 18.1363 6.31598 17.2401 6.2447V6.2447ZM9.44949 12.7216V3.25065L11.1909 7.36492L15.6514 7.7519L12.2704 10.6848L13.2888 15.0435L9.44949 12.7216Z" fill="#F2BA14"/>
</svg>
