<svg width="48" height="48" viewBox="0 0 48 48" fill="none" xmlns="http://www.w3.org/2000/svg">
<g clip-path="url(#clip0_10588_55739)">
<path d="M40 4H8C5.78 4 4 5.78 4 8V30C4 32.22 5.78 34 8 34H16V44L24 40L32 44V34H40C42.22 34 44 32.22 44 30V8C44 5.78 42.22 4 40 4ZM40 30H8V26H24H40V30ZM40 22H8V10C8 8.9 8.9 8 10 8H38C39.1 8 40 8.9 40 10V22Z" fill="white"/>
<circle cx="14" cy="16" r="4" fill="white"/>
<path d="M20 19.84V12.16H21.0805V15.392H24.1382V12.16H25.2142V19.84H24.1382V16.5973H21.0805V19.84H20Z" fill="white"/>
<path d="M28.8608 20C28.3886 20 27.9626 19.9022 27.583 19.7067C27.2064 19.5111 26.8956 19.232 26.6505 18.8693C26.4084 18.5031 26.2545 18.0693 26.1887 17.568L27.3095 17.3653C27.4052 17.8204 27.601 18.1724 27.8969 18.4213C28.1958 18.6702 28.5395 18.7947 28.9281 18.7947C29.1582 18.7947 29.3749 18.752 29.5781 18.6667C29.7814 18.5813 29.9458 18.4569 30.0713 18.2933C30.1998 18.1298 30.2641 17.9289 30.2641 17.6907C30.2641 17.584 30.2492 17.4862 30.2193 17.3973C30.1894 17.3049 30.1446 17.2231 30.0848 17.152C30.028 17.0809 29.9533 17.0169 29.8606 16.96C29.7709 16.8996 29.6663 16.848 29.5468 16.8053L27.8789 16.2187C27.7355 16.1689 27.58 16.1031 27.4127 16.0213C27.2483 15.936 27.0914 15.8204 26.9419 15.6747C26.7955 15.5253 26.6744 15.3369 26.5788 15.1093C26.4861 14.8782 26.4398 14.5938 26.4398 14.256C26.4398 13.7618 26.5444 13.3476 26.7536 13.0133C26.9658 12.6756 27.2498 12.4231 27.6055 12.256C27.9641 12.0889 28.3617 12.0071 28.798 12.0107C29.2404 12.0142 29.6349 12.1049 29.9817 12.2827C30.3284 12.4569 30.6183 12.7111 30.8514 13.0453C31.0846 13.3796 31.249 13.7831 31.3446 14.256L30.1834 14.496C30.1356 14.2258 30.0429 13.9964 29.9054 13.808C29.7709 13.616 29.605 13.4702 29.4078 13.3707C29.2135 13.2711 29.0058 13.2178 28.7846 13.2107C28.5694 13.2071 28.3691 13.2462 28.1838 13.328C28.0015 13.4062 27.8535 13.52 27.74 13.6693C27.6294 13.8187 27.5741 13.9929 27.5741 14.192C27.5741 14.3804 27.6219 14.5351 27.7175 14.656C27.8132 14.7733 27.9312 14.8676 28.0717 14.9387C28.2152 15.0062 28.3602 15.0631 28.5066 15.1093L29.6633 15.4933C29.8217 15.5431 29.9996 15.6107 30.1969 15.696C30.3941 15.7813 30.5839 15.9004 30.7662 16.0533C30.9486 16.2062 31.098 16.4071 31.2146 16.656C31.3341 16.9049 31.3939 17.2213 31.3939 17.6053C31.3939 18.0036 31.3237 18.3538 31.1832 18.656C31.0457 18.9547 30.8589 19.2036 30.6228 19.4027C30.3867 19.6018 30.1162 19.7511 29.8113 19.8507C29.5094 19.9502 29.1926 20 28.8608 20Z" fill="white"/>
<path d="M35.0948 20C34.4491 20 33.8962 19.8329 33.4359 19.4987C32.9756 19.1609 32.6214 18.6916 32.3733 18.0907C32.1282 17.4898 32.0057 16.7929 32.0057 16C32.0057 15.2071 32.1282 14.5102 32.3733 13.9093C32.6214 13.3084 32.9756 12.8409 33.4359 12.5067C33.8962 12.1689 34.4491 12 35.0948 12C35.839 12 36.4592 12.2222 36.9554 12.6667C37.4515 13.1076 37.7997 13.7031 38 14.4533L36.9105 14.8107C36.785 14.3093 36.5713 13.9182 36.2694 13.6373C35.9675 13.3529 35.576 13.2107 35.0948 13.2107C34.6614 13.2107 34.2997 13.3262 34.0098 13.5573C33.7228 13.7884 33.5061 14.1138 33.3597 14.5333C33.2162 14.9493 33.143 15.4382 33.14 16C33.14 16.5618 33.2117 17.0524 33.3552 17.472C33.5017 17.888 33.7198 18.2116 34.0098 18.4427C34.2997 18.6738 34.6614 18.7893 35.0948 18.7893C35.576 18.7893 35.9675 18.6471 36.2694 18.3627C36.5713 18.0782 36.785 17.6871 36.9105 17.1893L38 17.5467C37.7997 18.2969 37.4515 18.8942 36.9554 19.3387C36.4592 19.7796 35.839 20 35.0948 20Z" fill="white"/>
</g>
<defs>
<clipPath id="clip0_10588_55739">
<rect width="48" height="48" fill="white"/>
</clipPath>
</defs>
</svg>
