<svg width="24" height="24" viewBox="0 0 24 24" fill="none" xmlns="http://www.w3.org/2000/svg">
<g clip-path="url(#clip0_1364_10045)">
<path d="M12.0508 12.9493C12.3203 12.9493 12.5 12.9493 12.6797 13.0391C12.8594 13.129 13.0391 13.2188 13.2188 13.3985C13.3984 13.5782 13.4883 13.7579 13.5781 13.9375C13.668 14.1172 13.668 14.3868 13.668 14.5665C13.668 14.836 13.668 15.0157 13.5781 15.1954C13.4883 15.3751 13.3984 15.5547 13.2188 15.7344C13.0391 15.9141 12.8594 16.004 12.6797 16.0938C12.5 16.2735 12.2305 16.2735 12.0508 16.2735C11.7813 16.2735 11.6016 16.2735 11.4219 16.1837C11.2422 16.0938 11.0625 16.004 10.8828 15.8243C10.7031 15.6446 10.6133 15.4649 10.5234 15.2852C10.4336 15.1055 10.4336 14.836 10.4336 14.6563C10.4336 14.3868 10.4336 14.2071 10.5234 14.0274C10.6133 13.8477 10.7031 13.668 10.8828 13.4883C11.0625 13.3086 11.2422 13.2188 11.4219 13.129C11.6016 13.0391 11.7813 12.9493 12.0508 12.9493ZM13.1289 11.6914H10.8828L10.5234 1H13.5781L13.1289 11.6914Z" fill="#FE0101"/>
<path d="M19.1485 17.5313C17.6212 20.0469 14.9258 21.754 11.7813 21.754C7.01955 21.754 3.2461 17.8907 3.2461 13.2188C3.2461 9.35549 5.85158 6.03126 9.3555 5.04298V2.70703C4.59376 3.78516 1 8.09768 1 13.2188C1 19.1485 5.85158 24.0001 11.7813 24.0001C15.9141 24.0001 19.5079 21.6641 21.3048 18.3399L19.6876 18.9688L19.1485 17.5313Z" fill="#FE0101"/>
<path d="M14.5664 2.79688V5.13282C17.9805 6.30079 20.4063 9.44534 20.4063 13.2188C20.4063 14.0274 20.3164 14.9258 20.0469 15.6446L20.586 17.2618L22.1133 16.3633C22.3828 15.375 22.5625 14.2969 22.5625 13.2188C22.5625 8.18752 19.1485 3.96485 14.5664 2.79688Z" fill="#FE0101"/>
</g>
<defs>
<clipPath id="clip0_1364_10045">
<rect width="24" height="24" fill="white"/>
</clipPath>
</defs>
</svg>
