<svg width="32" height="32" viewBox="0 0 32 32" fill="none" xmlns="http://www.w3.org/2000/svg">
<path d="M26.0167 11.5996C26.0167 10.6663 25.8834 9.59964 25.8834 8.66631C25.8834 6.79965 26.15 5.06633 26.4167 3.19967C26.4167 3.06633 26.4167 2.79967 26.4167 2.66634C26.4167 1.86634 26.0167 1.33301 25.2167 1.33301H25.0834C24.8167 1.33301 24.55 1.33301 24.2834 1.33301C24.2834 1.46634 24.15 1.33301 24.0167 1.46634C23.2167 1.73301 22.6834 2.26634 22.6834 3.19967C22.6834 8.13298 22.6834 13.0663 22.6834 18.1329C22.6834 18.3996 22.55 18.5329 22.2834 18.5329C17.7501 18.5329 13.2167 18.5329 8.68341 18.5329C7.75008 18.5329 7.21675 18.9329 6.95008 19.7329C6.95008 19.8663 6.95008 19.9996 6.81675 20.1329C6.81675 20.5329 6.81675 21.0663 6.81675 21.4663C6.81675 21.7329 6.95008 21.8663 7.21675 21.8663C7.35008 21.8663 7.48341 21.8663 7.61675 21.8663C9.88341 21.8663 12.0167 21.8663 14.2834 21.8663H14.4167V24.3996C11.8834 24.6662 9.75008 25.5996 7.88341 27.1996C7.48341 27.4662 7.35008 27.8662 7.21675 28.2662C7.21675 28.2662 7.21675 28.2662 7.08341 28.3996C6.41675 29.1996 6.55008 30.5329 7.48341 31.3329C7.75008 31.5996 8.28341 31.8662 8.81674 31.8662C9.08341 31.8662 9.35008 31.8662 9.75008 31.7329C10.5501 31.4662 11.0834 30.7996 11.2167 29.8662C11.2167 29.3329 11.2167 28.9329 10.9501 28.5329C12.0167 27.8662 13.0834 27.4662 14.4167 27.1996C14.5501 27.1996 14.6834 27.1996 14.8167 27.1996C14.8167 27.1996 14.8167 27.1996 14.9501 27.1996C14.9501 27.3329 14.9501 27.4662 14.9501 27.5996C14.4167 27.9996 14.0167 28.5329 13.8834 29.0662C13.7501 29.7329 13.8834 30.3996 14.4167 30.9329C14.6834 31.4662 15.3501 31.7329 15.8834 31.8662C16.5501 31.8662 17.0834 31.7329 17.6167 31.3329C18.0167 30.9329 18.4167 30.3996 18.4167 29.7329C18.4167 29.0662 18.2834 28.5329 17.8834 28.1329C17.7501 27.9996 17.4834 27.8662 17.3501 27.7329C17.3501 27.5996 17.3501 27.4662 17.3501 27.3329C18.2834 27.4662 19.0834 27.7329 19.8834 27.9996C20.4167 28.2662 20.8167 28.5329 21.2167 28.7996C20.9501 29.3329 20.9501 29.8662 21.0834 30.3996C21.2167 30.9329 21.6167 31.4662 22.2834 31.7329C22.95 31.9995 24.2834 32.1329 25.0834 31.0662C25.75 30.1329 25.75 28.9329 24.95 28.2662C24.8167 28.1329 24.8167 28.1329 24.6834 27.9996C24.55 27.8662 24.4167 27.5996 24.15 27.3329C23.0834 26.2662 21.7501 25.4662 20.2834 24.9329C19.4834 24.6662 18.5501 24.3996 17.7501 24.2662V21.7329H17.8834C20.1501 21.7329 22.55 21.7329 24.8167 21.7329C25.6167 21.7329 26.15 21.3329 26.4167 20.6663C26.4167 20.5329 26.4167 20.3996 26.4167 20.2663C26.4167 18.7996 26.2834 17.3329 26.2834 15.8663C26.15 14.2663 26.0167 12.933 26.0167 11.5996Z" fill="#434969"/>
<path d="M17.3334 18.6666C21.6 18.6666 22.6667 14.2222 22.6667 12V18.6666H17.3334Z" fill="#434969"/>
</svg>
