<svg width="48" height="48" viewBox="0 0 48 48" fill="none" xmlns="http://www.w3.org/2000/svg">
<g clip-path="url(#clip0_11197_58546)">
<path d="M33.5973 5.01682L16.7792 5C14.9292 5 13.4155 6.51364 13.4155 8.36364V17.762C13.4155 18.687 14.1723 19.4438 15.0973 19.4438C16.0223 19.4438 16.7792 18.687 16.7792 17.762V11.7273H33.5973V35.2727H16.7792V33.5909C16.7792 32.6659 16.0223 31.9091 15.0973 31.9091C14.1723 31.9091 13.4155 32.6659 13.4155 33.5909V38.6364C13.4155 40.4864 14.9292 42 16.7792 42H33.5973C35.4473 42 36.961 40.4864 36.961 38.6364V8.36364C36.961 6.51364 35.4473 5.01682 33.5973 5.01682Z" fill="white"/>
<path d="M14.5143 25.6105L10.3354 21.4317C9.57368 20.6699 8.33309 20.6699 7.57132 21.4317C6.80956 22.1935 6.80956 23.4341 7.57132 24.1958L12.9472 29.5717C13.796 30.4205 15.1672 30.4205 16.016 29.5717L28.7484 16.8393C29.5101 16.0776 29.5101 14.837 28.7484 14.0752C27.9866 13.3135 26.746 13.3135 25.9843 14.0752L14.5143 25.6105Z" fill="white"/>
<path fill-rule="evenodd" clip-rule="evenodd" d="M24.9862 31.208C25.8376 31.208 26.5278 30.5178 26.5278 29.6663C26.5278 28.8149 25.8376 28.1247 24.9862 28.1247C24.1347 28.1247 23.4445 28.8149 23.4445 29.6663C23.4445 30.5178 24.1347 31.208 24.9862 31.208ZM24.9862 32.7497C26.689 32.7497 28.0695 31.3692 28.0695 29.6663C28.0695 27.9635 26.689 26.583 24.9862 26.583C23.2833 26.583 21.9028 27.9635 21.9028 29.6663C21.9028 31.3692 23.2833 32.7497 24.9862 32.7497Z" fill="white"/>
</g>
<defs>
<clipPath id="clip0_11197_58546">
<rect width="48" height="48" fill="white"/>
</clipPath>
</defs>
</svg>
