<svg width="15" height="14" viewBox="0 0 15 14" fill="none" xmlns="http://www.w3.org/2000/svg">
<path d="M7.5 0.333008C3.83333 0.333008 0.833328 3.33301 0.833328 6.99967C0.833328 10.6663 3.83333 13.6663 7.5 13.6663C11.1667 13.6663 14.1667 10.6663 14.1667 6.99967C14.1667 3.33301 11.1667 0.333008 7.5 0.333008ZM2.16666 6.99967C2.16666 4.06634 4.56666 1.66634 7.5 1.66634C8.7 1.66634 9.83333 2.06634 10.7667 2.79967L3.29999 10.2663C2.56666 9.33301 2.16666 8.19967 2.16666 6.99967ZM7.5 12.333C6.29999 12.333 5.16666 11.933 4.23333 11.1997L11.7 3.73301C12.4333 4.66634 12.8333 5.79967 12.8333 6.99967C12.8333 9.93301 10.4333 12.333 7.5 12.333Z" fill="white"/>
</svg>
