<svg width="32" height="32" viewBox="0 0 32 32" fill="none" xmlns="http://www.w3.org/2000/svg">
<g clip-path="url(#clip0_3141_23249)">
<path d="M26.6667 16C26.6667 12.6133 25.08 9.58667 22.6134 7.64L21.7067 2.22667C21.4934 0.946667 20.3734 0 19.08 0H12.9334C11.6267 0 10.5067 0.946667 10.2934 2.22667L9.40004 7.64C6.92004 9.58667 5.33337 12.6 5.33337 16C5.33337 19.4 6.92004 22.4133 9.40004 24.36L10.2934 29.7733C10.5067 31.0533 11.6267 32 12.9334 32H19.08C20.3867 32 21.4934 31.0533 21.7067 29.7733L22.6134 24.36C25.08 22.4133 26.6667 19.3867 26.6667 16ZM8.00004 16C8.00004 11.5867 11.5867 8 16 8C20.4134 8 24 11.5867 24 16C24 20.4133 20.4134 24 16 24C11.5867 24 8.00004 20.4133 8.00004 16Z" fill="#434969"/>
<path fill-rule="evenodd" clip-rule="evenodd" d="M15.3334 17.3333H12V15.3333H16L15.3334 17.3333Z" fill="#434969"/>
<path fill-rule="evenodd" clip-rule="evenodd" d="M17.3334 9.33333V17.3333H15.3334V9.33333H17.3334Z" fill="#434969"/>
</g>
<defs>
<clipPath id="clip0_3141_23249">
<rect width="32" height="32" fill="white"/>
</clipPath>
</defs>
</svg>
