<svg width="32" height="32" viewBox="0 0 32 32" fill="none" xmlns="http://www.w3.org/2000/svg">
<path d="M27.4414 23.8151L27.4547 23.8127C27.4523 23.3806 27.1816 22.1279 26.2123 20.997C25.3056 19.9392 23.7194 18.9093 20.9092 18.9093C18.0991 18.9093 16.5129 19.9392 15.6062 20.997C14.6368 22.1279 14.3662 23.3806 14.3638 23.8127L27.4414 23.8151ZM27.4414 23.8151C27.4317 23.8167 27.4238 23.8177 27.4181 23.8184L27.4414 23.8151ZM26.0225 21.1597C26.8005 22.0674 27.1025 23.0519 27.1818 23.5684H14.6367C14.7159 23.0519 15.0179 22.0674 15.796 21.1597C16.6538 20.159 18.1698 19.1593 20.9092 19.1593C23.6487 19.1593 25.1647 20.159 26.0225 21.1597ZM27.4547 25.4548C27.4547 25.7048 27.4548 25.7048 27.455 25.7048L27.4553 25.7048L27.456 25.7048L27.4579 25.7048L27.4634 25.7047L27.4814 25.7042C27.4963 25.7037 27.5171 25.7028 27.5428 25.7009C27.5942 25.6973 27.666 25.69 27.7515 25.6758C27.9213 25.6475 28.1515 25.5904 28.3847 25.4738C28.6189 25.3567 28.8607 25.1771 29.0434 24.9031C29.2271 24.6275 29.3411 24.2712 29.3411 23.8184C29.3411 22.9404 28.9105 21.2464 27.6445 19.7693C26.3683 18.2804 24.2526 17.0229 20.9092 17.0229C17.5658 17.0229 15.4502 18.2804 14.174 19.7693C12.9079 21.2464 12.4774 22.9404 12.4774 23.8184C12.4774 24.2712 12.5913 24.6275 12.7751 24.9031C12.9578 25.1771 13.1996 25.3567 13.4338 25.4738C13.667 25.5904 13.8972 25.6475 14.067 25.6758C14.1525 25.69 14.2243 25.6973 14.2757 25.7009C14.3014 25.7028 14.3221 25.7037 14.3371 25.7042L14.3551 25.7047L14.3606 25.7048L14.3625 25.7048L14.3632 25.7048L14.3635 25.7048C14.3637 25.7048 14.3638 25.7048 14.3638 25.4548V25.7048H27.4547V25.4548Z" fill="#434969" stroke="#434969" stroke-width="0.5"/>
<path d="M23.9319 10.7275C23.9319 12.3969 22.5786 13.7502 20.9092 13.7502C19.2398 13.7502 17.8865 12.3969 17.8865 10.7275C17.8865 9.05804 19.2398 7.70472 20.9092 7.70472C22.5786 7.70472 23.9319 9.05804 23.9319 10.7275ZM20.9092 15.8865C23.7585 15.8865 26.0683 13.5767 26.0683 10.7275C26.0683 7.87816 23.7585 5.56836 20.9092 5.56836C18.0599 5.56836 15.7501 7.87816 15.7501 10.7275C15.7501 13.5767 18.0599 15.8865 20.9092 15.8865Z" fill="#434969" stroke="#434969" stroke-width="0.5"/>
<path d="M12.2227 17.5759C12.7661 17.6283 13.2681 17.7182 13.7314 17.8386C13.3444 18.1715 12.994 18.5296 12.6817 18.9074C11.4812 20.3593 10.841 22.1031 10.841 23.8184C10.841 24.3217 10.9183 24.7872 11.0678 25.2048H4.54554C4.03863 25.2048 3.70435 25.0782 3.49505 24.8689C3.28574 24.6596 3.15918 24.3253 3.15918 23.8184C3.15918 23.06 3.54683 21.4814 4.73536 20.0947C5.91365 18.7201 7.88894 17.5229 11.091 17.5229C11.4869 17.5229 11.8639 17.5413 12.2227 17.5759Z" fill="#434969" stroke="#434969" stroke-width="0.5"/>
<path d="M5.61377 11.5458C5.61377 8.97266 7.69972 6.88672 10.2729 6.88672C12.846 6.88672 14.932 8.97266 14.932 11.5458C14.932 14.119 12.846 16.2049 10.2729 16.2049C7.69972 16.2049 5.61377 14.119 5.61377 11.5458Z" fill="#434969" stroke="#434969" stroke-width="0.5"/>
</svg>
