<svg width="24" height="24" viewBox="0 0 24 24" fill="none" xmlns="http://www.w3.org/2000/svg">
<g clip-path="url(#clip0_1364_9948)">
<path d="M14.5667 22.725C14.3833 22.725 14.2 22.8167 13.925 22.8167C13.65 22.8167 13.375 22.9083 13.1 22.9083C12.55 23 12 23 11.45 23C11.175 23 10.9 23 10.5333 22.9083C10.4417 22.9083 10.2583 22.9083 10.075 22.8167C9.61667 22.725 9.15833 22.6333 8.7 22.45C7.69167 22.175 6.68333 21.7167 5.85833 21.075C5.76667 21.075 5.76667 20.9833 5.675 20.9833C5.49167 20.8917 5.30833 20.8 5.21667 20.6167C4.75833 20.25 4.3 19.8833 3.84167 19.425C3.65833 19.15 3.38333 18.9667 3.2 18.6917C3.10833 18.5083 2.925 18.4167 2.83333 18.2333L2.74167 18.1417C2.46667 17.775 2.28333 17.4083 2.1 17.0417C1.91667 16.675 1.73333 16.2167 1.55 15.85C1.45833 15.6667 1.45833 15.4833 1.36667 15.3C1.275 14.8417 1.09167 14.3833 1.09167 13.925C1.09167 13.7417 1.09167 13.65 1 13.4667C1 12.9167 1 12.275 1 11.725C1 11.6333 1 11.5417 1 11.45C1 11.175 1.09167 10.9 1.09167 10.5333C1.09167 10.35 1.09167 10.2583 1.18333 10.075C1.275 9.61667 1.36667 9.15833 1.45833 8.7C1.55 8.51667 1.55 8.33333 1.64167 8.15C1.825 7.78333 2.00833 7.41667 2.19167 7.05C2.375 6.59167 2.65 6.225 2.83333 5.85833C3.475 4.85 4.3 4.025 5.21667 3.29167C5.4 3.2 5.58333 3.01667 5.76667 2.925L5.85833 2.83333C6.225 2.55833 6.59167 2.375 6.95833 2.19167C7.6 1.825 8.33333 1.55 9.06667 1.36667C9.15833 1.36667 9.25 1.36667 9.34167 1.36667C9.8 1.275 10.2583 1.18333 10.8083 1.09167C11.3583 1 11.9083 1 12.4583 1H12.55C12.7333 1 12.825 1 13.0083 1C13.1917 1 13.375 1 13.4667 1.09167C13.8333 1.18333 14.2 1.18333 14.5667 1.275C14.8417 1.36667 15.025 1.36667 15.3 1.45833C15.4833 1.55 15.6667 1.55 15.85 1.64167C16.2167 1.825 16.675 2.00833 17.0417 2.19167C17.4083 2.375 17.775 2.65 18.1417 2.83333L18.2333 2.925C18.325 3.01667 18.4167 3.10833 18.6 3.2C18.7833 3.29167 18.7833 3.38333 18.6 3.475C18.325 3.75 17.9583 4.11667 17.6833 4.39167C17.5 4.575 17.3167 4.66667 17.225 4.75833C17.1333 4.85 17.0417 4.85 16.95 4.75833C16.5833 4.48333 16.2167 4.3 15.85 4.11667C15.4833 3.93333 15.025 3.75 14.6583 3.65833C14.475 3.56667 14.3833 3.56667 14.2 3.56667C14.0167 3.475 13.7417 3.475 13.5583 3.38333C13.4667 3.38333 13.4667 3.38333 13.375 3.38333C13.1917 3.38333 13.1917 3.38333 13.1917 3.56667C13.1917 3.75 13.1917 3.93333 13.1917 4.11667C13.1917 4.3 13.1917 4.3 13.0083 4.3C12.3667 4.3 11.8167 4.3 11.175 4.3C10.9917 4.3 10.9917 4.3 10.9917 4.11667C10.9917 3.93333 10.9917 3.75 10.9917 3.475C10.9917 3.29167 10.9917 3.29167 10.8083 3.29167C10.7167 3.29167 10.7167 3.29167 10.625 3.29167C10.1667 3.475 9.8 3.56667 9.43333 3.65833C8.975 3.75 8.60833 3.93333 8.15 4.11667C7.96667 4.20833 7.78333 4.3 7.6 4.39167C7.50833 4.48333 7.325 4.575 7.23333 4.66667C7.14167 4.66667 7.14167 4.75833 7.05 4.75833C6.13333 5.4 5.4 6.13333 4.85 7.05C4.575 7.41667 4.39167 7.78333 4.20833 8.15C4.20833 8.15 4.20833 8.24167 4.11667 8.33333C3.75 9.06667 3.475 9.8 3.38333 10.625C3.38333 10.8083 3.38333 10.8083 3.56667 10.8083C3.75 10.8083 3.93333 10.8083 4.11667 10.8083C4.3 10.8083 4.39167 10.9 4.39167 11.0833C4.39167 11.6333 4.48333 12.0917 4.39167 12.6417C4.39167 12.7333 4.39167 12.825 4.39167 13.0083C4.39167 13.1917 4.39167 13.1917 4.20833 13.1917C4.025 13.1917 3.84167 13.1917 3.65833 13.1917C3.38333 13.1917 3.38333 13.1917 3.475 13.4667V13.5583C3.56667 13.925 3.65833 14.2917 3.75 14.6583C3.84167 15.1167 4.025 15.4833 4.20833 15.9417C4.39167 16.3083 4.575 16.675 4.85 17.0417C5.125 17.5 5.49167 17.8667 5.85833 18.2333C6.225 18.6 6.59167 18.9667 7.05 19.2417C7.14167 19.2417 7.14167 19.3333 7.23333 19.3333C7.41667 19.425 7.50833 19.5167 7.69167 19.6083C7.875 19.7 8.05833 19.7917 8.24167 19.8833C8.60833 20.0667 9.06667 20.25 9.43333 20.3417C9.8 20.4333 10.1667 20.525 10.5333 20.6167C10.625 20.6167 10.7167 20.6167 10.7167 20.6167C10.8083 20.6167 10.9 20.6167 10.9 20.525C10.9 20.25 10.9 20.0667 10.9 19.7917C10.9 19.6083 10.9 19.6083 11.0833 19.6083C11.725 19.6083 12.3667 19.6083 13.0083 19.6083C13.1917 19.6083 13.1917 19.6083 13.1917 19.7917C13.1917 19.975 13.1917 20.25 13.1917 20.4333C13.1917 20.525 13.2833 20.6167 13.375 20.6167C13.4667 20.6167 13.5583 20.6167 13.5583 20.6167C13.925 20.525 14.2917 20.4333 14.6583 20.3417C15.1167 20.25 15.4833 20.0667 15.85 19.8833C16.2167 19.7 16.5833 19.5167 16.95 19.2417C17.8667 18.6 18.6 17.8667 19.2417 16.95C19.5167 16.5833 19.7 16.2167 19.8833 15.85C20.0667 15.4833 20.25 15.025 20.3417 14.5667C20.4333 14.2 20.525 13.8333 20.6167 13.4667C20.6167 13.375 20.6167 13.2833 20.6167 13.1917C20.6167 13.1 20.6167 13.0083 20.525 13.0083C20.3417 13.0083 20.0667 13.0083 19.8833 13.0083C19.7 13.0083 19.7 13.0083 19.7 12.825C19.7 12.1833 19.7 11.6333 19.7 10.9917C19.7 10.8083 19.7 10.8083 19.8833 10.8083C20.0667 10.8083 20.3417 10.8083 20.525 10.8083C20.6167 10.8083 20.7083 10.7167 20.7083 10.625C20.7083 10.5333 20.7083 10.4417 20.7083 10.4417C20.6167 10.1667 20.525 9.8 20.4333 9.525C20.4333 9.43333 20.4333 9.43333 20.4333 9.34167C20.3417 8.975 20.1583 8.7 20.0667 8.33333C20.0667 8.24167 20.0667 8.15 20.0667 8.05833C20.525 7.6 20.9833 7.14167 21.35 6.775L21.4417 6.68333C21.625 6.59167 21.625 6.59167 21.7167 6.775C21.7167 6.86667 21.8083 6.95833 21.8083 7.05C21.9917 7.41667 22.175 7.875 22.3583 8.24167C22.6333 8.975 22.8167 9.8 22.9083 10.625C22.9083 10.9 23 11.2667 23 11.5417C23 11.6333 23 11.725 23 11.8167C23 12 23 12.1833 23 12.4583C23 12.55 23 12.6417 23 12.7333C23 13.0083 23 13.375 22.9083 13.65C22.9083 13.7417 22.9083 13.925 22.8167 14.0167C22.725 14.6583 22.5417 15.2083 22.3583 15.7583C22.175 16.2167 21.9917 16.675 21.8083 17.1333C21.625 17.5 21.35 17.9583 21.1667 18.325C20.9833 18.6917 20.7083 18.9667 20.4333 19.2417C19.975 19.7917 19.5167 20.25 19.0583 20.6167C18.7833 20.8917 18.4167 21.075 18.1417 21.35C17.775 21.5333 17.5 21.8083 17.1333 21.9917C17.1333 21.9917 17.0417 22.0833 17.0417 21.9917C16.2167 22.175 15.3917 22.45 14.5667 22.725Z" fill="#03CE3C"/>
<path d="M8.24168 8.05824C8.42501 7.87491 8.42501 7.87491 8.70001 8.05824C9.80001 9.15824 10.9 10.2582 12 11.3582C12.0917 11.4499 12.0917 11.4499 12.1833 11.3582C14.3833 9.15824 16.4917 6.95824 18.6917 4.84991C19.5167 4.02491 20.25 3.29158 21.075 2.46658C21.1667 2.37491 21.1667 2.37491 21.2583 2.46658C21.7167 2.92491 22.175 3.38324 22.6333 3.84158C22.725 3.93324 22.725 3.93324 22.6333 4.02491C21.7167 4.94158 20.8 5.85824 19.8833 6.86658C18.9667 7.78324 18.05 8.69991 17.1333 9.61658C17.1333 9.61658 17.1333 9.70824 17.0417 9.70824C17.0417 9.79991 16.95 9.79991 16.8583 9.89158C16.125 10.6249 15.3917 11.3582 14.75 12.0916C14.6583 12.1832 14.6583 12.1832 14.5667 12.2749C14.1083 12.7332 13.65 13.1916 13.1917 13.6499C12.9167 13.9249 12.55 14.2916 12.275 14.5666C12.1833 14.6582 12.0917 14.6582 12 14.5666C11.6333 14.1999 11.2667 13.8332 10.9 13.4666C10.8083 13.3749 10.8083 13.3749 10.7167 13.2832C10.1667 12.7332 9.70835 12.2749 9.15835 11.7249C8.88335 11.4499 8.60835 11.1749 8.42501 10.9916C7.96668 10.5332 7.60001 10.1666 7.14168 9.70824C6.95835 9.52491 6.95835 9.52491 7.14168 9.43324C7.50835 9.06658 7.87501 8.69991 8.24168 8.33324C8.05835 8.14991 8.15001 8.14991 8.24168 8.05824Z" fill="#03CE3C"/>
</g>
<defs>
<clipPath id="clip0_1364_9948">
<rect width="24" height="24" fill="white"/>
</clipPath>
</defs>
</svg>
