<svg width="32" height="32" viewBox="0 0 32 32" fill="none" xmlns="http://www.w3.org/2000/svg">
<path d="M26.0166 11.5996C26.0166 10.6663 25.8833 9.59964 25.8833 8.66631C25.8833 6.79965 26.1499 5.06633 26.4166 3.19967C26.4166 3.06633 26.4166 2.79967 26.4166 2.66634C26.4166 1.86634 26.0166 1.33301 25.2166 1.33301H25.0833C24.8166 1.33301 24.5499 1.33301 24.2833 1.33301C24.2833 1.46634 24.1499 1.33301 24.0166 1.46634C23.2166 1.73301 22.6833 2.26634 22.6833 3.19967C22.6833 8.13298 22.6833 13.0663 22.6833 18.1329C22.6833 18.3996 22.5499 18.5329 22.2833 18.5329C17.7499 18.5329 13.2166 18.5329 8.68329 18.5329C7.74996 18.5329 7.21662 18.9329 6.94996 19.7329C6.94996 19.8663 6.94996 19.9996 6.81663 20.1329C6.81663 20.5329 6.81663 21.0663 6.81663 21.4663C6.81663 21.7329 6.94996 21.8663 7.21662 21.8663C7.34996 21.8663 7.48329 21.8663 7.61662 21.8663C9.88329 21.8663 12.0166 21.8663 14.2833 21.8663H14.4166V24.3996C11.8833 24.6662 9.74995 25.5996 7.88329 27.1996C7.48329 27.4662 7.34996 27.8662 7.21662 28.2662C7.21662 28.2662 7.21662 28.2662 7.08329 28.3996C6.41663 29.1996 6.54996 30.5329 7.48329 31.3329C7.74996 31.5996 8.28329 31.8662 8.81662 31.8662C9.08329 31.8662 9.34995 31.8662 9.74995 31.7329C10.55 31.4662 11.0833 30.7996 11.2166 29.8662C11.2166 29.3329 11.2166 28.9329 10.95 28.5329C12.0166 27.8662 13.0833 27.4662 14.4166 27.1996C14.5499 27.1996 14.6833 27.1996 14.8166 27.1996C14.8166 27.1996 14.8166 27.1996 14.9499 27.1996C14.9499 27.3329 14.9499 27.4662 14.9499 27.5996C14.4166 27.9996 14.0166 28.5329 13.8833 29.0662C13.7499 29.7329 13.8833 30.3996 14.4166 30.9329C14.6833 31.4662 15.3499 31.7329 15.8833 31.8662C16.5499 31.8662 17.0833 31.7329 17.6166 31.3329C18.0166 30.9329 18.4166 30.3996 18.4166 29.7329C18.4166 29.0662 18.2833 28.5329 17.8833 28.1329C17.7499 27.9996 17.4833 27.8662 17.3499 27.7329C17.3499 27.5996 17.3499 27.4662 17.3499 27.3329C18.2833 27.4662 19.0833 27.7329 19.8833 27.9996C20.4166 28.2662 20.8166 28.5329 21.2166 28.7996C20.9499 29.3329 20.9499 29.8662 21.0833 30.3996C21.2166 30.9329 21.6166 31.4662 22.2833 31.7329C22.9499 31.9995 24.2833 32.1329 25.0833 31.0662C25.7499 30.1329 25.7499 28.9329 24.9499 28.2662C24.8166 28.1329 24.8166 28.1329 24.6833 27.9996C24.5499 27.8662 24.4166 27.5996 24.1499 27.3329C23.0833 26.2662 21.7499 25.4662 20.2833 24.9329C19.4833 24.6662 18.5499 24.3996 17.7499 24.2662V21.7329H17.8833C20.1499 21.7329 22.5499 21.7329 24.8166 21.7329C25.6166 21.7329 26.1499 21.3329 26.4166 20.6663C26.4166 20.5329 26.4166 20.3996 26.4166 20.2663C26.4166 18.7996 26.2833 17.3329 26.2833 15.8663C26.1499 14.2663 26.0166 12.933 26.0166 11.5996Z" fill="#434969"/>
<path d="M17.3333 18.6666C21.5999 18.6666 22.6666 14.2222 22.6666 12V18.6666H17.3333Z" fill="#434969"/>
<ellipse cx="15.3333" cy="3.33332" rx="3.33333" ry="3.33332" fill="#434969"/>
<path fill-rule="evenodd" clip-rule="evenodd" d="M15 8C13.3431 8 12 9.34315 12 11V16H10.6667L10.6667 16C10.6206 16 10.5453 15.9961 10.4457 15.9908L10.4456 15.9908C9.85446 15.9597 8.40818 15.8835 7.14417 16.3244C6.34395 16.6035 5.52376 17.1047 4.91601 17.978C4.31114 18.8471 4 19.9653 4 21.3333V21.3333V25.6666C4 26.2189 4.44771 26.6666 5 26.6666H5.66666C6.21895 26.6666 6.66666 26.2189 6.66666 25.6666L6.66666 21.3333C6.66666 20.368 6.8833 19.8195 7.10482 19.5012C7.32346 19.187 7.62826 18.9798 8.02248 18.8423C8.72539 18.5971 9.44548 18.6256 10.1011 18.6515H10.1011H10.1012C10.2961 18.6592 10.4853 18.6667 10.6667 18.6667L10.6667 18.6666H12H17.3333H18.6666V8H15Z" fill="#434969"/>
</svg>
