<svg width="15" height="14" viewBox="0 0 15 14" fill="none" xmlns="http://www.w3.org/2000/svg">
<path d="M13.1933 2.92712L6.52667 9.59379C6.26667 9.85379 5.84667 9.85379 5.58667 9.59379L3.7 7.70712C3.44 7.44712 3.44 7.02712 3.7 6.76712C3.96 6.50712 4.38 6.50712 4.64 6.76712L6.05333 8.18045L12.2467 1.98712C12.5067 1.72712 12.9267 1.72712 13.1867 1.98712C13.4533 2.24712 13.4533 2.66712 13.1933 2.92712ZM7 12.3338C3.86 12.3338 1.34667 9.60712 1.7 6.40045C1.96 4.05379 3.78 2.12712 6.10667 1.74045C7.31333 1.54045 8.46 1.75379 9.43333 2.26045C9.69333 2.39379 10.0067 2.34712 10.2133 2.14045C10.5333 1.82045 10.4533 1.28045 10.0533 1.07379C9.07333 0.573785 7.96667 0.300452 6.78667 0.333785C3.36 0.440452 0.513334 3.22712 0.34 6.64712C0.146667 10.4938 3.2 13.6671 7 13.6671C7.8 13.6671 8.56 13.5271 9.27333 13.2671C9.72667 13.1005 9.85333 12.5138 9.50667 12.1671C9.32667 11.9871 9.05333 11.9205 8.81333 12.0138C8.24667 12.2205 7.63333 12.3338 7 12.3338ZM11.6667 9.00045H10.3333C9.96667 9.00045 9.66667 9.30045 9.66667 9.66712C9.66667 10.0338 9.96667 10.3338 10.3333 10.3338H11.6667V11.6671C11.6667 12.0338 11.9667 12.3338 12.3333 12.3338C12.7 12.3338 13 12.0338 13 11.6671V10.3338H14.3333C14.7 10.3338 15 10.0338 15 9.66712C15 9.30045 14.7 9.00045 14.3333 9.00045H13V7.66712C13 7.30045 12.7 7.00045 12.3333 7.00045C11.9667 7.00045 11.6667 7.30045 11.6667 7.66712V9.00045Z" fill="white"/>
</svg>
