<svg width="48" height="48" viewBox="0 0 48 48" fill="none" xmlns="http://www.w3.org/2000/svg">
<g clip-path="url(#clip0_11197_58537)">
<path d="M40 4H8C5.78 4 4 5.78 4 8V30C4 32.22 5.78 34 8 34H16V44L24 40L32 44V34H40C42.22 34 44 32.22 44 30V8C44 5.78 42.22 4 40 4ZM40 30H8V26H40V30ZM40 22H8V10C8 8.9 8.9 8 10 8H38C39.1 8 40 8.9 40 10V22Z" fill="white"/>
<path d="M22.6967 20C22.2201 20 21.7903 19.9022 21.4072 19.7067C21.0271 19.5111 20.7134 19.232 20.466 18.8693C20.2217 18.5031 20.0664 18.0693 20 17.568L21.1312 17.3653C21.2277 17.8204 21.4253 18.1724 21.7239 18.4213C22.0255 18.6702 22.3724 18.7947 22.7646 18.7947C22.9968 18.7947 23.2155 18.752 23.4206 18.6667C23.6258 18.5813 23.7917 18.4569 23.9184 18.2933C24.0481 18.1298 24.1129 17.9289 24.1129 17.6907C24.1129 17.584 24.0978 17.4862 24.0677 17.3973C24.0375 17.3049 23.9923 17.2231 23.9319 17.152C23.8746 17.0809 23.7992 17.0169 23.7057 16.96C23.6152 16.8996 23.5096 16.848 23.389 16.8053L21.7058 16.2187C21.561 16.1689 21.4042 16.1031 21.2352 16.0213C21.0693 15.936 20.911 15.8204 20.7601 15.6747C20.6123 15.5253 20.4902 15.3369 20.3936 15.1093C20.3001 14.8782 20.2534 14.5938 20.2534 14.256C20.2534 13.7618 20.359 13.3476 20.5701 13.0133C20.7843 12.6756 21.0708 12.4231 21.4298 12.256C21.7918 12.0889 22.193 12.0071 22.6333 12.0107C23.0798 12.0142 23.478 12.1049 23.8279 12.2827C24.1778 12.4569 24.4704 12.7111 24.7056 13.0453C24.9409 13.3796 25.1068 13.7831 25.2034 14.256L24.0315 14.496C23.9832 14.2258 23.8897 13.9964 23.7509 13.808C23.6152 13.616 23.4478 13.4702 23.2487 13.3707C23.0526 13.2711 22.843 13.2178 22.6198 13.2107C22.4026 13.2071 22.2005 13.2462 22.0135 13.328C21.8295 13.4062 21.6802 13.52 21.5655 13.6693C21.4539 13.8187 21.3981 13.9929 21.3981 14.192C21.3981 14.3804 21.4464 14.5351 21.5429 14.656C21.6394 14.7733 21.7586 14.8676 21.9004 14.9387C22.0451 15.0062 22.1914 15.0631 22.3392 15.1093L23.5066 15.4933C23.6665 15.5431 23.846 15.6107 24.045 15.696C24.2441 15.7813 24.4357 15.9004 24.6197 16.0533C24.8037 16.2062 24.9545 16.4071 25.0721 16.656C25.1928 16.9049 25.2531 17.2213 25.2531 17.6053C25.2531 18.0036 25.1822 18.3538 25.0405 18.656C24.9017 18.9547 24.7132 19.2036 24.4749 19.4027C24.2366 19.6018 23.9636 19.7511 23.6559 19.8507C23.3513 19.9502 23.0315 20 22.6967 20Z" fill="white"/>
<path d="M28.7767 20C28.3001 20 27.8703 19.9022 27.4872 19.7067C27.1071 19.5111 26.7934 19.232 26.546 18.8693C26.3017 18.5031 26.1464 18.0693 26.08 17.568L27.2112 17.3653C27.3077 17.8204 27.5053 18.1724 27.8039 18.4213C28.1055 18.6702 28.4524 18.7947 28.8446 18.7947C29.0768 18.7947 29.2955 18.752 29.5006 18.6667C29.7058 18.5813 29.8717 18.4569 29.9984 18.2933C30.1281 18.1298 30.1929 17.9289 30.1929 17.6907C30.1929 17.584 30.1778 17.4862 30.1477 17.3973C30.1175 17.3049 30.0723 17.2231 30.0119 17.152C29.9546 17.0809 29.8792 17.0169 29.7857 16.96C29.6952 16.8996 29.5896 16.848 29.469 16.8053L27.7858 16.2187C27.641 16.1689 27.4842 16.1031 27.3152 16.0213C27.1493 15.936 26.991 15.8204 26.8401 15.6747C26.6923 15.5253 26.5702 15.3369 26.4737 15.1093C26.3801 14.8782 26.3334 14.5938 26.3334 14.256C26.3334 13.7618 26.439 13.3476 26.6501 13.0133C26.8643 12.6756 27.1508 12.4231 27.5098 12.256C27.8718 12.0889 28.273 12.0071 28.7134 12.0107C29.1598 12.0142 29.558 12.1049 29.9079 12.2827C30.2578 12.4569 30.5504 12.7111 30.7856 13.0453C31.0209 13.3796 31.1868 13.7831 31.2834 14.256L30.1115 14.496C30.0632 14.2258 29.9697 13.9964 29.8309 13.808C29.6952 13.616 29.5278 13.4702 29.3287 13.3707C29.1326 13.2711 28.923 13.2178 28.6998 13.2107C28.4826 13.2071 28.2805 13.2462 28.0935 13.328C27.9095 13.4062 27.7602 13.52 27.6455 13.6693C27.5339 13.8187 27.4781 13.9929 27.4781 14.192C27.4781 14.3804 27.5264 14.5351 27.6229 14.656C27.7194 14.7733 27.8386 14.8676 27.9804 14.9387C28.1252 15.0062 28.2714 15.0631 28.4193 15.1093L29.5866 15.4933C29.7465 15.5431 29.926 15.6107 30.125 15.696C30.3241 15.7813 30.5157 15.9004 30.6997 16.0533C30.8837 16.2062 31.0345 16.4071 31.1521 16.656C31.2728 16.9049 31.3331 17.2213 31.3331 17.6053C31.3331 18.0036 31.2622 18.3538 31.1205 18.656C30.9817 18.9547 30.7932 19.2036 30.5549 19.4027C30.3166 19.6018 30.0436 19.7511 29.7359 19.8507C29.4313 19.9502 29.1115 20 28.7767 20Z" fill="white"/>
<path d="M35.068 20C34.4165 20 33.8584 19.8329 33.3939 19.4987C32.9294 19.1609 32.5719 18.6916 32.3216 18.0907C32.0742 17.4898 31.9505 16.7929 31.9505 16C31.9505 15.2071 32.0742 14.5102 32.3216 13.9093C32.5719 13.3084 32.9294 12.8409 33.3939 12.5067C33.8584 12.1689 34.4165 12 35.068 12C35.8191 12 36.445 12.2222 36.9458 12.6667C37.4465 13.1076 37.7979 13.7031 38 14.4533L36.9005 14.8107C36.7738 14.3093 36.5581 13.9182 36.2535 13.6373C35.9488 13.3529 35.5537 13.2107 35.068 13.2107C34.6306 13.2107 34.2657 13.3262 33.9731 13.5573C33.6835 13.7884 33.4648 14.1138 33.317 14.5333C33.1722 14.9493 33.0983 15.4382 33.0953 16C33.0953 16.5618 33.1677 17.0524 33.3125 17.472C33.4603 17.888 33.6805 18.2116 33.9731 18.4427C34.2657 18.6738 34.6306 18.7893 35.068 18.7893C35.5537 18.7893 35.9488 18.6471 36.2535 18.3627C36.5581 18.0782 36.7738 17.6871 36.9005 17.1893L38 17.5467C37.7979 18.2969 37.4465 18.8942 36.9458 19.3387C36.445 19.7796 35.8191 20 35.068 20Z" fill="white"/>
<circle cx="14" cy="16" r="4" fill="white"/>
</g>
<defs>
<clipPath id="clip0_11197_58537">
<rect width="48" height="48" fill="white"/>
</clipPath>
</defs>
</svg>
