<svg width="48" height="48" viewBox="0 0 48 48" fill="none" xmlns="http://www.w3.org/2000/svg">
<g clip-path="url(#clip0_11197_58508)">
<path fill-rule="evenodd" clip-rule="evenodd" d="M38 19.6769L28.3231 10H10V38H38V19.6769ZM10 6H28.34C29.4 6 30.42 6.42 31.16 7.18L40.82 16.84C41.58 17.58 42 18.6 42 19.66V38C42 40.2 40.2 42 38 42H10C7.8 42 6 40.2 6 38V10C6 7.8 7.8 6 10 6Z" fill="white"/>
<path fill-rule="evenodd" clip-rule="evenodd" d="M30 15H12V13H30V15Z" fill="white"/>
<path fill-rule="evenodd" clip-rule="evenodd" d="M34 19H12V17H34V19Z" fill="white"/>
<path fill-rule="evenodd" clip-rule="evenodd" d="M36 27H28V25H36V27Z" fill="white"/>
<path fill-rule="evenodd" clip-rule="evenodd" d="M36 23H26V21H36V23Z" fill="white"/>
<path fill-rule="evenodd" clip-rule="evenodd" d="M36 31H28V29H36V31Z" fill="white"/>
<path fill-rule="evenodd" clip-rule="evenodd" d="M36 35H28V33H36V35Z" fill="white"/>
<path fill-rule="evenodd" clip-rule="evenodd" d="M19 36C22.866 36 26 32.866 26 29C26 25.134 22.866 22 19 22C15.134 22 12 25.134 12 29C12 32.866 15.134 36 19 36ZM21.6822 23.9997L14.7837 32.278L16.3201 33.5583L23.2186 25.2801L21.6822 23.9997ZM18.0001 26.0001C18.0001 27.1047 17.1047 28.0001 16.0001 28.0001C14.8955 28.0001 14.0001 27.1047 14.0001 26.0001C14.0001 24.8955 14.8955 24.0001 16.0001 24.0001C17.1047 24.0001 18.0001 24.8955 18.0001 26.0001ZM22 33.9998C23.1046 33.9998 24 33.1043 24 31.9998C24 30.8952 23.1046 29.9998 22 29.9998C20.8955 29.9998 20 30.8952 20 31.9998C20 33.1043 20.8955 33.9998 22 33.9998Z" fill="white"/>
</g>
<defs>
<clipPath id="clip0_11197_58508">
<rect width="48" height="48" fill="white"/>
</clipPath>
</defs>
</svg>
