<svg width="15" height="14" viewBox="0 0 15 14" fill="none" xmlns="http://www.w3.org/2000/svg">
<path d="M7.5 12.333C4.56 12.333 2.16667 9.93967 2.16667 6.99967C2.16667 4.05967 4.56 1.66634 7.5 1.66634C10.44 1.66634 12.8333 4.05967 12.8333 6.99967C12.8333 9.93967 10.44 12.333 7.5 12.333ZM7.5 13.6663C11.18 13.6663 14.1667 10.6797 14.1667 6.99967C14.1667 3.31967 11.18 0.333008 7.5 0.333008C3.82 0.333008 0.833334 3.31967 0.833334 6.99967C0.833334 10.6797 3.82 13.6663 7.5 13.6663ZM6.83333 6.99967V8.99967C6.83333 9.36634 7.13333 9.66634 7.5 9.66634C7.86667 9.66634 8.16667 9.36634 8.16667 8.99967V6.99967H9.36C9.66 6.99967 9.80667 6.63967 9.59333 6.43301L7.73333 4.57301C7.6 4.43967 7.39333 4.43967 7.26 4.57301L5.4 6.43301C5.19333 6.63967 5.34 6.99967 5.64 6.99967H6.83333Z" fill="white"/>
</svg>
