<svg width="14" height="15" viewBox="0 0 14 15" fill="none" xmlns="http://www.w3.org/2000/svg">
<path d="M6.99992 0.876953C3.31992 0.876953 0.333252 3.86362 0.333252 7.54362C0.333252 11.2236 3.31992 14.2103 6.99992 14.2103C10.6799 14.2103 13.6666 11.2236 13.6666 7.54362C13.6666 3.86362 10.6799 0.876953 6.99992 0.876953ZM6.99992 12.877C4.05992 12.877 1.66659 10.4836 1.66659 7.54362C1.66659 4.60362 4.05992 2.21029 6.99992 2.21029C9.93992 2.21029 12.3333 4.60362 12.3333 7.54362C12.3333 10.4836 9.93992 12.877 6.99992 12.877ZM9.58659 5.07029L5.66659 8.99029L4.41325 7.73695C4.15325 7.47695 3.73325 7.47695 3.47325 7.73695C3.21325 7.99695 3.21325 8.41695 3.47325 8.67695L5.19992 10.4036C5.45992 10.6636 5.87992 10.6636 6.13992 10.4036L10.5333 6.01029C10.7933 5.75029 10.7933 5.33029 10.5333 5.07029C10.2733 4.81029 9.84659 4.81029 9.58659 5.07029Z" fill="white"/>
</svg>
