<svg width="32" height="34" viewBox="0 0 32 34" fill="none" xmlns="http://www.w3.org/2000/svg">
<path d="M10.4938 7.48392C6.69386 9.25584 4.3987 12.8374 3.97057 16.738L2.50914 15.3047L0.909294 16.9759C1.20749 11.9464 4.23395 7.09852 9.2281 4.76971C10.0928 4.36651 10.9783 4.05753 11.8728 3.83848C12.1368 3.77386 12.4015 3.71706 12.6667 3.66798L12.9166 6.6665C12.5905 6.73705 12.2653 6.82251 11.9418 6.92324C11.4543 7.07505 10.9707 7.26154 10.4938 7.48392Z" fill="#434969"/>
<path d="M22.8416 26.3108C26.5189 23.1421 27.7942 17.6569 25.6173 12.9884C24.212 9.9748 21.6372 7.84549 18.6667 6.92324L18.6667 3.83848C22.7753 4.83525 26.4165 7.61606 28.3315 11.7228C31.2172 17.9112 29.3045 25.1475 24.1579 29.1335L22.8416 26.3108Z" fill="#434969"/>
<path d="M29.1313 21.7334L26.0173 21.6736C24.3729 26.195 20.1189 29.3483 15.0885 29.2517C14.0106 29.231 12.8152 29.0882 11.864 28.7105L9.6943 29.3877L10.8529 31.4468C12.1635 31.8314 13.5961 32.0986 15.0334 32.1262C21.7405 32.2549 27.4571 27.8118 29.1313 21.7334Z" fill="#434969"/>
<path d="M17.8104 31.9614L16.4941 29.1386C11.7104 29.6511 7.00712 27.2181 4.88082 22.6582C4.42518 21.6811 4.02749 20.5448 3.94818 19.5243L2.3855 17.8739L1.04609 19.8202C1.27728 21.1663 1.66766 22.5704 2.27517 23.8732C5.11025 29.9531 11.6153 33.132 17.8104 31.9614Z" fill="#434969"/>
<path d="M15.4896 16.5989C15.849 16.5989 16.0886 16.5989 16.3282 16.7186C16.5678 16.8384 16.8073 16.9582 17.0469 17.1978C17.2865 17.4374 17.4063 17.677 17.5261 17.9166C17.6459 18.1562 17.6459 18.5155 17.6459 18.7551C17.6459 19.1145 17.6459 19.3541 17.5261 19.5937C17.4063 19.8332 17.2865 20.0728 17.0469 20.3124C16.8073 20.552 16.5678 20.6718 16.3282 20.7916C16.0886 21.0312 15.7292 21.0312 15.4896 21.0312C15.1303 21.0312 14.8907 21.0312 14.6511 20.9114C14.4115 20.7916 14.1719 20.6718 13.9323 20.4322C13.6928 20.1926 13.573 19.953 13.4532 19.7134C13.3334 19.4739 13.3334 19.1145 13.3334 18.8749C13.3334 18.5155 13.3334 18.2759 13.4532 18.0364C13.573 17.7968 13.6928 17.5572 13.9323 17.3176C14.1719 17.078 14.4115 16.9582 14.6511 16.8384C14.8907 16.7186 15.1303 16.5989 15.4896 16.5989ZM16.9271 14.9218L13.9323 14.9218L13.4532 0.666504L17.5261 0.666504L16.9271 14.9218Z" fill="#434969"/>
</svg>
